<?xml version="1.0" encoding="UTF-8"?>
<svg version="1.1" xmlns="http://www.w3.org/2000/svg" width="601" height="415">
<path d="M0 0 C0.7734375 0.38027344 1.546875 0.76054688 2.34375 1.15234375 C4.90352417 2.42008001 7.45188515 3.70900533 10 5 C11.8744649 5.93856944 13.7494927 6.8760153 15.625 7.8125 C25.41666667 12.70833333 35.20833333 17.60416667 45 22.5 C46.14597656 23.07234375 47.29195312 23.6446875 48.47265625 24.234375 C50.85765981 25.42819738 53.24056959 26.62546767 55.62109375 27.828125 C62.49541405 31.29337454 69.40066616 34.67717732 76.35742188 37.97436523 C86.22447908 42.65110905 95.94219782 47.52563924 105.578125 52.66015625 C111.68790628 55.91080492 117.88593812 58.97993151 124.08789062 62.04980469 C125.9529018 62.97659523 127.81313199 63.91227241 129.671875 64.8515625 C132.94884836 66.50675969 136.23491498 68.1428189 139.52539062 69.77099609 C141.3727846 70.68849622 143.2173927 71.6116097 145.06054688 72.53759766 C148.42945659 74.22649829 151.8075968 75.89572502 155.1875 77.5625 C156.27538818 78.11196289 157.36327637 78.66142578 158.48413086 79.22753906 C159.51417236 79.73124023 160.54421387 80.23494141 161.60546875 80.75390625 C162.52481201 81.21095947 163.44415527 81.6680127 164.39135742 82.13891602 C169.12341514 83.70091579 172.65340613 81.86172414 176.95703125 79.77734375 C177.89571045 79.32576904 178.83438965 78.87419434 179.80151367 78.40893555 C180.79513916 77.92336182 181.78876465 77.43778809 182.8125 76.9375 C183.84930908 76.43581299 184.88611816 75.93412598 185.9543457 75.41723633 C193.51875592 71.74798979 201.05128375 68.01782589 208.55761719 64.23144531 C213.97234264 61.50134983 219.39137551 58.77986079 224.8125 56.0625 C225.72724091 55.60373978 225.72724091 55.60373978 226.66046143 55.13571167 C234.08559349 51.4147804 241.53574727 47.76141812 249.0625 44.25 C256.18306621 40.92563464 263.14473449 37.35481087 270.08154297 33.66357422 C277.01185751 29.97650325 284.01367683 26.45062997 291.04833984 22.96777344 C294.3699688 21.32067097 297.68456829 19.65953109 301 18 C302.33330079 17.33326826 303.6666341 16.66660154 305 16 C305.66 15.67 306.32 15.34 307 15 C309 14 311 13 313 12 C313.66008057 11.6697583 314.32016113 11.3395166 315.00024414 10.99926758 C316.33211343 10.33373944 317.66463296 9.66951099 318.99780273 9.0065918 C322.36009986 7.33263202 325.70765353 5.63674247 329.03515625 3.89453125 C345.61941197 -4.72157838 363.88480607 -11.68005004 382.75 -6.8125 C384.51130279 -6.24212308 386.26161255 -5.63680958 388 -5 C389.47919922 -4.48953125 389.47919922 -4.48953125 390.98828125 -3.96875 C398.43906797 -1.16642107 404.1728197 2.59994287 410 8 C410.62519531 8.57105469 411.25039063 9.14210938 411.89453125 9.73046875 C415.91163484 13.83825188 418.64675814 18.58072613 421.3125 23.625 C421.81934326 24.54635742 421.81934326 24.54635742 422.33642578 25.48632812 C428.70406658 38.21516147 427.31560265 54.0952774 427.35058594 67.9387207 C427.36318167 70.12680018 427.37659673 72.31487507 427.39076233 74.50294495 C427.42643528 80.41267752 427.44993271 86.32239895 427.4705801 92.23220086 C427.48909216 97.18879891 427.51381108 102.14535814 427.53855062 107.10192841 C427.60031797 119.48283286 427.65058223 131.8637571 427.69521323 144.24473353 C427.73647107 155.59846037 427.79322332 166.95205096 427.85523582 178.30568248 C427.91144943 188.67566779 427.9593054 199.04566855 428.0004847 209.41572446 C428.02501926 215.58731056 428.05234605 221.75884752 428.08739471 227.93038368 C428.11999512 233.747477 428.14198099 239.56452321 428.15640068 245.38168907 C428.16327443 247.49495289 428.17358753 249.60820937 428.18795204 251.72143555 C428.26214763 262.98204778 427.99760192 274.16364686 427.17706299 285.39762878 C427.07290703 286.93793509 427.07290703 286.93793509 426.96664691 288.5093587 C425.79763918 302.82587584 419.61120153 316.11617922 409 326 C393.03776622 338.88842525 376.54924708 341.47033773 356.69396973 341.38095093 C354.99641829 341.38441561 353.29886911 341.38918558 351.60132456 341.39513266 C346.97806477 341.40756101 342.35499273 341.40150983 337.73173261 341.39217401 C332.72960519 341.3853501 327.72750872 341.39588122 322.72538757 341.40411377 C312.94259343 341.41741781 303.15986854 341.41458824 293.37707174 341.40587585 C285.42274686 341.39908657 277.46844132 341.39818795 269.51411438 341.4014473 C268.3798041 341.401907 267.24549383 341.40236669 266.07681051 341.40284032 C263.77211248 341.40379955 261.46741446 341.40477219 259.16271645 341.4057581 C237.57752655 341.41430224 215.99237495 341.40449318 194.40719134 341.388357 C175.90669563 341.37495472 157.40625641 341.37728308 138.90576172 341.39111328 C117.39510402 341.40718634 95.88447983 341.41347836 74.37381697 341.40427649 C72.07783986 341.40332089 69.78186274 341.40237778 67.48588562 341.4014473 C66.3563718 341.40098447 65.22685798 341.40052164 64.06311646 341.40004479 C56.12306816 341.39746008 48.18304121 341.40181469 40.24299622 341.40888596 C30.55998324 341.41732034 20.87704318 341.41498013 11.19403851 341.39904372 C6.25848577 341.39118708 1.32305437 341.38802474 -3.61249733 341.39799118 C-8.13890273 341.40699284 -12.66507538 341.40191601 -17.19145995 341.38605852 C-18.8204713 341.38273373 -20.4495027 341.38435227 -22.07850093 341.39168589 C-36.90437123 341.45326084 -50.18656451 340.20758389 -63 332 C-64.0725 331.360625 -65.145 330.72125 -66.25 330.0625 C-75.74890597 322.93832053 -82.17382276 313.91637499 -86.375 302.875 C-86.62580322 302.21830322 -86.87660645 301.56160645 -87.13500977 300.88500977 C-89.93821515 293.06513099 -90.14783365 285.23533911 -90.13371277 277.00738525 C-90.13597833 276.02896408 -90.13824388 275.0505429 -90.14057809 274.0424726 C-90.14688548 270.77862843 -90.14609082 267.51482614 -90.14526367 264.25097656 C-90.1482572 261.90476427 -90.15166018 259.55855247 -90.15544128 257.21234131 C-90.16426589 250.84857327 -90.16661876 244.48481868 -90.16725707 238.12104511 C-90.16808794 233.47399598 -90.17098898 228.82694984 -90.17409355 224.17990176 C-90.18239255 211.67516691 -90.18613655 199.17043916 -90.18542381 186.66570166 C-90.18538386 185.95649863 -90.1853439 185.24729559 -90.18530273 184.51660156 C-90.18526185 183.80652575 -90.18522097 183.09644995 -90.18517885 182.36485669 C-90.1847726 170.8630409 -90.19433852 159.36125788 -90.2084411 147.85945156 C-90.22282997 136.03016821 -90.2297099 124.20090081 -90.22884732 112.3716085 C-90.22851621 105.73814661 -90.23142204 99.10471492 -90.24202538 92.47126007 C-90.25172979 86.22991397 -90.25176944 79.98864026 -90.24450874 73.74729156 C-90.24346581 71.46249282 -90.24580843 69.17768951 -90.2518692 66.89289856 C-90.3060461 45.0464591 -89.02866932 24.45963664 -73 8 C-65.82164949 1.46101675 -58.19216027 -2.93164917 -49 -6 C-48.27683594 -6.24492188 -47.55367187 -6.48984375 -46.80859375 -6.7421875 C-31.08045947 -11.09950743 -14.20886567 -7.18396007 0 0 Z M-7 58 C-7.03867188 59.74023438 -7.03867188 59.74023438 -7.078125 61.515625 C-7.54019142 75.92004325 -9.72166289 88.3780338 -20.0703125 99.15625 C-30.57209923 108.96279649 -37.7468308 110.30826426 -53 113 C-53 162.83 -53 212.66 -53 264 C-48.38 264.99 -43.76 265.98 -39 267 C-28.54301479 271.05208177 -19.49274096 276.6134329 -13.8125 286.5 C-13.15894531 287.6034375 -12.50539062 288.706875 -11.83203125 289.84375 C-10 294 -10 294 -7 307 C108.83 307 224.66 307 344 307 C345.32 302.38 346.64 297.76 348 293 C351.61392538 283.89826201 358.97793581 274.31019848 368 270 C375.17995839 267.28567392 382.42427756 265.26262041 390 264 C390 214.17 390 164.34 390 113 C384.72 112.01 379.44 111.02 374 110 C370.630526 108.39744529 367.99177713 107.04190404 365 105 C363.989375 104.443125 362.97875 103.88625 361.9375 103.3125 C353.21219511 96.44364296 347.0688793 86.68682035 345.70019531 75.56347656 C345.22892044 70.04606205 345.0642997 64.53561942 345 59 C344.34 58.67 343.68 58.34 343 58 C340.55539902 59.06989395 338.2338506 60.20032506 335.875 61.4375 C334.41416954 62.18640675 332.95322902 62.93509884 331.4921875 63.68359375 C330.74420898 64.07015137 329.99623047 64.45670898 329.22558594 64.85498047 C325.83233631 66.60073966 322.41611924 68.29956376 319 70 C317.66653625 70.66640577 316.33320333 71.3330734 315 72 C307 76 307 76 304.99829102 77.00073242 C303.67052394 77.66469707 302.3428863 78.32892061 301.01538086 78.9934082 C297.59792161 80.70360671 294.17804634 82.40868154 290.75390625 84.10546875 C281.30830789 88.78521471 281.30830789 88.78521471 272.08984375 93.89453125 C269.75609612 95.12901831 267.35172901 96.13871327 264.92016602 97.16333008 C261.55252931 98.63070338 258.28103288 100.2875553 255 101.9375 C254.32710938 102.27201172 253.65421875 102.60652344 252.9609375 102.95117188 C249.72914618 104.57018702 246.55541073 106.23689557 243.4375 108.06640625 C240.02885758 109.98376761 236.6035337 111.48755341 233 113 C230.50061138 114.18943937 228.03169466 115.43678845 225.5625 116.6875 C224.15758138 117.39458946 222.75263255 118.10161891 221.34765625 118.80859375 C220.6323877 119.16937012 219.91711914 119.53014648 219.18017578 119.90185547 C215.62429832 121.69293462 212.06190567 123.47094831 208.5 125.25 C206.62700254 126.18637963 204.75409351 127.12293211 202.8815918 128.06030273 C201.56910765 128.71577847 200.25536682 129.36874129 198.94067383 130.01977539 C195.13680645 131.9076273 191.39143881 133.8579947 187.6875 135.9375 C183.88685706 138.00673894 180.07512536 140.03594412 176.1875 141.9375 C175.33542969 142.35902344 174.48335937 142.78054687 173.60546875 143.21484375 C167.6690495 145.00377969 162.81761104 142.167007 157.625 139.4375 C156.18886612 138.70169792 154.75266649 137.96602415 153.31640625 137.23046875 C152.59211426 136.85583496 151.86782227 136.48120117 151.12158203 136.09521484 C147.94704053 134.45643542 144.75679816 132.84985435 141.5625 131.25 C140.9228833 130.92870117 140.2832666 130.60740234 139.62426758 130.27636719 C134.45750178 127.6945255 129.24958432 125.2038211 124.03442383 122.72143555 C114.18677232 118.03303709 104.45468621 113.20167549 94.82470703 108.08154297 C86.46079867 103.65977774 77.93136124 99.61215745 69.3828125 95.5625 C62.82626109 92.45373064 56.34143938 89.21041504 49.86523438 85.93847656 C47.98144622 84.99066483 46.0931369 84.05252092 44.203125 83.1171875 C36.5989478 79.34870322 29.06595192 75.46549855 21.5625 71.5 C14.85596935 67.96120879 8.11303 64.53835221 1.25 61.3125 C0.5288501 60.97347656 -0.1922998 60.63445312 -0.93530273 60.28515625 C-3.85151449 58.6927012 -3.85151449 58.6927012 -7 58 Z " fill="#1A2541" transform="translate(137,55)"/>
<path d="M0 0 C1.0209375 0.43570313 2.041875 0.87140625 3.09375 1.3203125 C11.2391518 5.08447546 19.01940102 10.21689254 25 17 C25 17.66 25 18.32 25 19 C26.485 19.495 26.485 19.495 28 20 C29.4375 22.1875 29.4375 22.1875 31 25 C31.62648438 25.87140625 32.25296875 26.7428125 32.8984375 27.640625 C35.31193552 31.49863298 36.74444489 35.27081661 38.1875 39.5625 C38.44724609 40.30435547 38.70699219 41.04621094 38.97460938 41.81054688 C43.54644456 55.07713839 43.60310841 69.69384857 39 83 C38.50693359 84.47339844 38.50693359 84.47339844 38.00390625 85.9765625 C34.71622042 94.78164498 29.22176063 103.80097426 22 110 C21.34 110 20.68 110 20 110 C19.73767578 110.60972656 19.47535156 111.21945312 19.20507812 111.84765625 C15.33389449 118.76182864 3.67054173 123.33718769 -3.6015625 125.5390625 C-21.97848029 130.30403515 -40.82011692 129.33482655 -57.34887695 119.6862793 C-63.17531581 116.09507295 -68.24357494 111.92955164 -73 107 C-73.56976563 106.41605469 -74.13953125 105.83210938 -74.7265625 105.23046875 C-88.08204771 90.60792469 -91.02101879 72.77589242 -90.21777344 53.66064453 C-89.03353651 39.19224317 -80.8063504 22.63482082 -70 13 C-50.21800532 -2.6371958 -24.17454638 -10.69258782 0 0 Z M-59 38 C-59.02464705 43.67830078 -59.04283462 49.35657069 -59.05493164 55.03491211 C-59.05997256 56.96818585 -59.06680519 58.90145576 -59.07543945 60.8347168 C-59.08751565 63.60726872 -59.09323057 66.37977041 -59.09765625 69.15234375 C-59.10281754 70.02213364 -59.10797882 70.89192352 -59.11329651 71.78807068 C-59.11349185 73.85905814 -59.06208168 75.92994324 -59 78 C-58.01732141 79.20561184 -58.01732141 79.20561184 -56.15234375 79.09765625 C-54.1015625 79.06510417 -52.05078125 79.03255208 -50 79 C-49.67 74.38 -49.34 69.76 -49 65 C-43 66 -43 66 -41.171875 68.43359375 C-40.46804688 69.92052734 -40.46804688 69.92052734 -39.75 71.4375 C-37.82291441 75.53499621 -37.82291441 75.53499621 -35 79 C-32.78927023 79.24253813 -32.78927023 79.24253813 -30.375 79.125 C-29.55773437 79.10695313 -28.74046875 79.08890625 -27.8984375 79.0703125 C-27.27195312 79.04710937 -26.64546875 79.02390625 -26 79 C-27.39759905 75.45481116 -27.39759905 75.45481116 -29 72 C-29.66 72 -30.32 72 -31 72 C-32.1314937 68.99404384 -32.93777549 66.22530379 -33 63 C-31.796875 61.1953125 -31.796875 61.1953125 -30.125 59.5625 C-27.23066501 56.71463369 -26.4955156 54.95445294 -26.375 50.875 C-26.59576533 47.56853742 -26.98959287 46.01881288 -28.625 43.0625 C-34.89095585 37.62101203 -40.43914804 37.61282372 -48.375 37.8125 C-49.39722656 37.82603516 -50.41945313 37.83957031 -51.47265625 37.85351562 C-53.98232049 37.88869783 -56.4908809 37.93792461 -59 38 Z M-18 50 C-18 63.53 -18 77.06 -18 91 C-14 92.33333333 -14 92.33333333 -10 91 C-10 86.38 -10 81.76 -10 77 C-8.68 77.66 -7.36 78.32 -6 79 C-1.70090104 79.74892176 2.32735424 79.98072396 6.171875 77.7265625 C9.7063081 74.73251793 11.78487137 72.70993996 12.37890625 67.98828125 C12.84722431 60.97011237 12.84722431 60.97011237 10.53125 54.51953125 C7.06815078 51.18698538 4.08186152 49.60577378 -0.75 49.4375 C-3.95569356 49.61623471 -6.20018395 50.44244468 -9 52 C-9.66 51.34 -10.32 50.68 -11 50 C-13.31 50 -15.62 50 -18 50 Z " fill="#1C2742" transform="translate(330,215)"/>
<path d="M0 0 C5.76774759 2.59939108 9.98242511 7.03888191 12.72265625 12.70703125 C14.69057082 18.75389603 14.64173626 25.88177899 12.01953125 31.72265625 C8.29012087 37.99484644 2.97617417 41.96889171 -4.03515625 43.9296875 C-10.7920441 45.11491209 -15.91391679 44.06060355 -21.73046875 40.41015625 C-27.45852459 35.99008166 -30.64903033 30.92664992 -31.8515625 23.765625 C-32.15056083 17.86720341 -30.96094238 13.10114587 -27.41796875 8.34765625 C-19.46348695 0.08347126 -11.57215496 -3.1220515 0 0 Z " fill="#192440" transform="translate(466.41796875,227.65234375)"/>
<path d="M0 0 C6.01605992 2.71129973 10.08795485 7.29159089 12.95703125 13.16015625 C14.28566399 19.93618322 14.35979074 26.9467322 11.58203125 33.34765625 C6.9422595 39.23612647 1.74711819 42.97855166 -5.73046875 44.22265625 C-12.74235838 44.76384236 -18.24282976 42.58380679 -23.73046875 38.28515625 C-28.56546593 33.68223893 -31.12040052 28.44541873 -31.60546875 21.765625 C-31.26680832 14.87600196 -28.7325697 9.68775413 -23.89453125 4.8125 C-16.85855791 -1.31272552 -9.05718478 -2.44353774 0 0 Z " fill="#1B2541" transform="translate(162.41796875,227.65234375)"/>
<path d="M0 0 C50.82970227 -0.02290091 101.65940402 -0.0405158 152.48911044 -0.05106533 C158.49330997 -0.052316 164.49750948 -0.05361033 170.50170898 -0.05493164 C172.29466178 -0.05532511 172.29466178 -0.05532511 174.12383585 -0.05572652 C193.46478437 -0.06007496 212.80572991 -0.06795798 232.14667667 -0.0771528 C251.99993678 -0.08651228 271.85319533 -0.09206048 291.70645756 -0.09408849 C303.95181697 -0.09545895 316.19716796 -0.09978371 328.44252478 -0.10791647 C336.84553933 -0.11321223 345.24854953 -0.11479786 353.65156562 -0.11350138 C358.49584208 -0.11286242 363.34010384 -0.1138253 368.18437767 -0.11920547 C372.62803579 -0.12410444 377.07166946 -0.12429639 381.51532876 -0.12089889 C383.11450882 -0.12047955 384.71369048 -0.12172018 386.31286747 -0.12488318 C396.2554033 -0.14338912 406.08626031 0.20722727 416 1 C416 1.66 416 2.32 416 3 C280.37 3 144.74 3 5 3 C5 2.34 5 1.68 5 1 C3.35 1 1.7 1 0 1 C0 0.67 0 0.34 0 0 Z " fill="#2A334D" transform="translate(95,393)"/>
<path d="M0 0 C0.66 0 1.32 0 2 0 C3.03212316 5.11112606 3.154833 10.01198811 3.16494751 15.20042419 C3.17059105 16.11785009 3.1762346 17.03527599 3.18204916 17.98050267 C3.19972653 21.05006618 3.21045673 24.11961392 3.22119141 27.18920898 C3.23241119 29.39233098 3.24404362 31.59545091 3.25605774 33.79856873 C3.28737283 39.78248565 3.31250761 45.76641384 3.3362546 51.75036502 C3.35669602 56.75222809 3.3802311 61.7540746 3.40379179 66.75592381 C3.46258814 79.24132835 3.51557227 91.72675093 3.5657609 104.21219224 C3.60667976 114.35494766 3.65294927 124.49766717 3.703125 134.64038086 C3.76148272 146.43731919 3.81618739 158.23426761 3.86572587 170.03124672 C3.89193299 176.26856522 3.91959166 182.50586798 3.9510994 188.74316216 C3.9805561 194.61756835 4.00473906 200.49197396 4.02499962 206.36641884 C4.03324439 208.51289523 4.04327019 210.6593657 4.05528831 212.80582428 C4.23558401 245.60353183 4.23558401 245.60353183 1 251 C-0.14961379 248.70077242 -0.12433248 247.42163134 -0.12304783 244.86517906 C-0.12503888 243.99383147 -0.12702993 243.12248387 -0.12908131 242.2247318 C-0.12616847 241.26171136 -0.12325563 240.29869092 -0.12025452 239.30648804 C-0.12110894 238.28797465 -0.12196337 237.26946126 -0.12284368 236.22008383 C-0.12449925 232.78521414 -0.11897583 229.35039259 -0.11352539 225.91552734 C-0.11324351 223.46206158 -0.11340127 221.00859572 -0.1139679 218.55513 C-0.11419609 213.26166533 -0.11134786 207.96821582 -0.10573006 202.6747551 C-0.09761286 195.02124301 -0.09499961 187.36773688 -0.09374207 179.71422096 C-0.09155189 167.29775851 -0.08489274 154.88130263 -0.07543945 142.46484375 C-0.06626444 130.40136752 -0.05918404 118.33789307 -0.05493164 106.27441406 C-0.05466892 105.53117761 -0.05440619 104.78794116 -0.05413551 104.02218239 C-0.0528305 100.29368993 -0.05156678 96.56519745 -0.05032361 92.83670497 C-0.03995207 61.89113188 -0.0222605 30.94556693 0 0 Z " fill="#161E39" transform="translate(561,95)"/>
<path d="M0 0 C2.54018851 3.81028277 2.28909332 6.87920129 2.2784729 11.29521179 C2.2842653 12.15123751 2.2900577 13.00726323 2.29602563 13.88922912 C2.313081 16.76823152 2.31590689 19.64707415 2.31884766 22.52612305 C2.32814201 24.58565669 2.33830994 26.64518656 2.34928894 28.70471191 C2.37665853 34.30558727 2.39175894 39.90643738 2.40471697 45.50736213 C2.42031712 51.35705455 2.44711722 57.20669518 2.4727478 63.05635071 C2.51959088 74.13788754 2.5563082 85.21943405 2.58942068 96.30101949 C2.62760304 108.91514948 2.67702334 121.52922752 2.72740483 134.14331377 C2.83080691 160.09550404 2.92004035 186.04772766 3 212 C2.01 211.67 1.02 211.34 0 211 C0 141.37 0 71.74 0 0 Z " fill="#0C1832" transform="translate(48,129)"/>
<path d="M0 0 C1.134375 0.020625 2.26875 0.04125 3.4375 0.0625 C3.4375 0.7225 3.4375 1.3825 3.4375 2.0625 C1.4575 2.0625 -0.5225 2.0625 -2.5625 2.0625 C-2.56065641 2.81125774 -2.55881283 3.56001549 -2.55691338 4.33146286 C-2.51276368 22.54208471 -2.47965772 40.7526959 -2.45887566 58.96335983 C-2.44855874 67.76986359 -2.43449047 76.57633165 -2.41162109 85.3828125 C-2.39169994 93.05765343 -2.37878659 100.7324685 -2.37432301 108.40733457 C-2.37171347 112.47191394 -2.36557129 116.53641935 -2.35103989 120.60097504 C-2.3374761 124.42583045 -2.33327491 128.25058134 -2.33628464 132.07545853 C-2.33573393 133.47993411 -2.33174929 134.88441315 -2.32408905 136.28886795 C-2.31414725 138.20547208 -2.31772064 140.12213216 -2.32199097 142.03875732 C-2.32014738 143.11172436 -2.31830379 144.18469139 -2.31640434 145.29017258 C-2.56229848 148.06022978 -3.13272979 149.7058199 -4.5625 152.0625 C-5.44602414 148.28059935 -5.67687394 144.80498694 -5.65151978 140.92523193 C-5.64592545 139.69133728 -5.64033112 138.45744263 -5.63456726 137.18615723 C-5.62318112 135.82690342 -5.61168767 134.46765052 -5.60009766 133.10839844 C-5.59158638 131.67088057 -5.58351551 130.23336004 -5.57585144 128.7958374 C-5.55369804 124.89945383 -5.52502171 121.00314349 -5.49489641 117.10681438 C-5.46421033 113.03137432 -5.43860465 108.95590176 -5.41220093 104.88043213 C-5.36704834 98.04102643 -5.31756674 91.20166197 -5.265625 84.36230469 C-5.20556388 76.44551861 -5.15281611 68.52870861 -5.10385668 60.61184669 C-5.05658879 53.00161625 -5.0037516 45.39143393 -4.94849777 37.78125763 C-4.92508111 34.53885078 -4.90371585 31.29643984 -4.88399124 28.05400848 C-4.86058194 24.24221304 -4.83234538 20.43048388 -4.80030251 16.61875153 C-4.78931194 15.216255 -4.78003089 13.81374394 -4.77253914 12.41122437 C-4.76208224 10.50473017 -4.74496482 8.59827589 -4.72744751 6.6918335 C-4.71969614 5.62259518 -4.71194477 4.55335686 -4.70395851 3.45171738 C-4.47590628 -0.40005761 -4.01918478 0.07051201 0 0 Z " fill="#10182F" transform="translate(86.5625,165.9375)"/>
<path d="M0 0 C2.88419236 1.79018836 3.016524 3.06990924 3.8125 6.4375 C3.99341741 9.87493079 3.99204684 11.27404116 2 14 C-1.11549872 15.55774936 -4.6044388 15.56480622 -8 15 C-10.21490947 13.42006458 -10.90153905 12.5328475 -11.3984375 9.84375 C-11.39070313 9.0703125 -11.38296875 8.296875 -11.375 7.5 C-11.38273437 6.7265625 -11.39046875 5.953125 -11.3984375 5.15625 C-10.90944554 2.50994057 -10.07463075 1.6597046 -8 0 C-5.06317146 -1.46841427 -3.13175678 -0.76696084 0 0 Z " fill="#343F57" transform="translate(331,272)"/>
<path d="M0 0 C10.17966102 -0.48474576 10.17966102 -0.48474576 13.75 1.625 C15.44231677 4.84040186 15.04260838 6.57428675 14 10 C12 12 12 12 9.1796875 12.1953125 C6.11979167 12.13020833 3.05989583 12.06510417 0 12 C0 8.04 0 4.08 0 0 Z " fill="#1B2645" transform="translate(280,260)"/>
<path d="M0 0 C0.33 0 0.66 0 1 0 C1 12.21 1 24.42 1 37 C0.67 37 0.34 37 0 37 C-0.33 44.92 -0.66 52.84 -1 61 C-1.33 61 -1.66 61 -2 61 C-2.05081236 53.43777341 -2.08578087 45.87559105 -2.10986328 38.31323242 C-2.11990555 35.74192662 -2.13354195 33.1706322 -2.15087891 30.59936523 C-2.17520484 26.89824613 -2.18650109 23.19727836 -2.1953125 19.49609375 C-2.20563507 18.35103867 -2.21595764 17.20598358 -2.22659302 16.02622986 C-2.22739584 10.28341487 -1.96720985 5.41493229 0 0 Z " fill="#5E6386" transform="translate(49,95)"/>
<path d="M0 0 C0.87591797 0.00128906 1.75183594 0.00257813 2.65429688 0.00390625 C9.15650615 0.09400615 9.15650615 0.09400615 11.4375 2.375 C1.0425 2.87 1.0425 2.87 -9.5625 3.375 C-9.8925 16.575 -10.2225 29.775 -10.5625 43.375 C-13.0375 43.87 -13.0375 43.87 -15.5625 44.375 C-14.9025 43.055 -14.2425 41.735 -13.5625 40.375 C-14.2225 40.045 -14.8825 39.715 -15.5625 39.375 C-13.5825 38.88 -13.5825 38.88 -11.5625 38.375 C-11.6346875 37.68019531 -11.706875 36.98539062 -11.78125 36.26953125 C-12.44905468 28.95150495 -12.72639451 21.65869111 -12.8125 14.3125 C-12.83376953 13.39637939 -12.85503906 12.48025879 -12.87695312 11.53637695 C-12.89517978 8.02481611 -12.8193292 5.10177201 -11.64453125 1.77734375 C-8.07350252 -0.62790825 -4.18843097 -0.11763516 0 0 Z " fill="#0F172E" transform="translate(280.5625,249.625)"/>
<path d="M0 0 C4.34923339 1.26852641 4.34923339 1.26852641 6 3.875 C6.8125 7.4375 6.8125 7.4375 7 10.875 C6.34 11.535 5.68 12.195 5 12.875 C4.01 12.875 3.02 12.875 2 12.875 C-2 7.73214286 -2 7.73214286 -2 3.875 C-3.32 3.545 -4.64 3.215 -6 2.875 C-4.05972988 0.18018039 -3.40614751 -0.14192281 0 0 Z " fill="#141C38" transform="translate(328,271.125)"/>
<path d="M0 0 C0.33 0.99 0.66 1.98 1 3 C1.66 3 2.32 3 3 3 C4.65 6.63 6.3 10.26 8 14 C8.99 14 9.98 14 11 14 C10.938125 14.7425 10.87625 15.485 10.8125 16.25 C11.03290072 19.48254392 11.97735258 20.5559677 14 23 C14 23.66 14 24.32 14 25 C16.475 25.99 16.475 25.99 19 27 C18.67 27.99 18.34 28.98 18 30 C9.69048682 23.51857972 3.71064907 14.91695591 0 5 C-0.1328125 2.203125 -0.1328125 2.203125 0 0 Z " fill="#393E53" transform="translate(243,295)"/>
<path d="M0 0 C0.99 0 1.98 0 3 0 C3.804375 -0.04125 4.60875 -0.0825 5.4375 -0.125 C8.18697237 0.0091206 9.61258704 0.7125204 12 2 C10.07010782 3.19982444 8.13080772 4.38452818 6.1875 5.5625 C4.56908203 6.55443359 4.56908203 6.55443359 2.91796875 7.56640625 C0 9 0 9 -3 8 C-2.67 6.02 -2.34 4.04 -2 2 C-1.34 2 -0.68 2 0 2 C0 1.34 0 0.68 0 0 Z " fill="#3A435A" transform="translate(331,330)"/>
<path d="M0 0 C2 3 2 3 1.5390625 5.453125 C1.08660156 6.83757812 1.08660156 6.83757812 0.625 8.25 C-0.73101641 12.74815136 -1.3113252 16.33012203 -1 21 C-1.66 21.33 -2.32 21.66 -3 22 C-3.31241371 24.54941373 -3.51303421 27.00361513 -3.625 29.5625 C-3.66367188 30.27341797 -3.70234375 30.98433594 -3.7421875 31.71679688 C-3.83671783 33.47742425 -3.91945817 35.23867728 -4 37 C-4.33 37 -4.66 37 -5 37 C-5.63224128 23.66262706 -4.93921804 12.47152554 0 0 Z " fill="#42485D" transform="translate(245,250)"/>
<path d="M0 0 C0.66 0.33 1.32 0.66 2 1 C1.6352773 3.60831992 1.38353723 4.70417756 -0.7421875 6.34375 C-1.44601562 6.7253125 -2.14984375 7.106875 -2.875 7.5 C-6.03569655 9.34796518 -8.09717439 10.79524108 -10 14 C-10.556875 14.9075 -11.11375 15.815 -11.6875 16.75 C-12.120625 17.4925 -12.55375 18.235 -13 19 C-13 18.01 -13 17.02 -13 16 C-14.98 16.99 -14.98 16.99 -17 18 C-12.78440974 10.27141785 -7.17571315 4.97200429 0 0 Z " fill="#3D465B" transform="translate(268,222)"/>
<path d="M0 0 C0.33 0 0.66 0 1 0 C1.37526293 12.50876449 0.84617304 23.26383312 -4 35 C-4.12375 34.360625 -4.2475 33.72125 -4.375 33.0625 C-4.58125 32.381875 -4.7875 31.70125 -5 31 C-5.66 30.67 -6.32 30.34 -7 30 C-6.54625 29.505 -6.0925 29.01 -5.625 28.5 C-3.42554985 25.11623055 -2.9019558 21.92995028 -2 18 C-1.67 17.67 -1.34 17.34 -1 17 C-0.76298761 14.14122091 -0.57780818 11.30116703 -0.4375 8.4375 C-0.37272461 7.22803711 -0.37272461 7.22803711 -0.30664062 5.99414062 C-0.20024738 3.99631195 -0.09959112 1.9981793 0 0 Z " fill="#666A7E" transform="translate(371,268)"/>
<path d="M0 0 C0.66 0.33 1.32 0.66 2 1 C1.34 2.98 0.68 4.96 0 7 C-1.98 6.34 -3.96 5.68 -6 5 C-6.33 5.99 -6.66 6.98 -7 8 C-9.06640625 8.94921875 -9.06640625 8.94921875 -11.5625 9.6875 C-12.80193359 10.06455078 -12.80193359 10.06455078 -14.06640625 10.44921875 C-14.70449219 10.63097656 -15.34257812 10.81273437 -16 11 C-16.66 10.34 -17.32 9.68 -18 9 C-15.04817547 7.46627858 -12.08760757 5.95027306 -9.125 4.4375 C-8.28324219 3.99986328 -7.44148438 3.56222656 -6.57421875 3.11132812 C-5.76855469 2.70205078 -4.96289062 2.29277344 -4.1328125 1.87109375 C-3.38918457 1.48880615 -2.64555664 1.10651855 -1.87939453 0.71264648 C-1.25919434 0.47747314 -0.63899414 0.2422998 0 0 Z " fill="#2F3950" transform="translate(332,126)"/>
<path d="M0 0 C7.54823336 -0.70216124 16.12276748 1.34981986 22.39453125 5.63671875 C23.18923828 6.31154297 23.18923828 6.31154297 24 7 C23.34 7 22.68 7 22 7 C21.67 7.66 21.34 8.32 21 9 C21 8.01 21 7.02 21 6 C19.98292969 5.96132812 19.98292969 5.96132812 18.9453125 5.921875 C11.95287654 5.49574317 6.33870569 3.95622934 0 1 C0 0.67 0 0.34 0 0 Z " fill="#484F63" transform="translate(310,211)"/>
<path d="M0 0 C3.29696105 1.09898702 4.04670589 1.94597387 6.1875 4.5625 C6.71730469 5.20316406 7.24710937 5.84382812 7.79296875 6.50390625 C8.19128906 6.99761719 8.58960938 7.49132812 9 8 C8.67 8.66 8.34 9.32 8 10 C7.01 9.67 6.02 9.34 5 9 C4.01 9 3.02 9 2 9 C0.31763529 8.37400383 -1.3523962 7.71247732 -3 7 C-2.67 6.01 -2.34 5.02 -2 4 C-1.01 3.67 -0.02 3.34 1 3 C0.67 2.01 0.34 1.02 0 0 Z " fill="#394057" transform="translate(469,230)"/>
<path d="M0 0 C1.32 0.66 2.64 1.32 4 2 C3.814375 2.61875 3.62875 3.2375 3.4375 3.875 C2.76313824 6.04160178 2.76313824 6.04160178 4 8 C2.6875 9.5 2.6875 9.5 1 11 C0.01 11 -0.98 11 -2 11 C-2 12.98 -2 14.96 -2 17 C-2.33 17 -2.66 17 -3 17 C-3.34548714 10.66606918 -2.29342747 5.89738492 0 0 Z " fill="#283248" transform="translate(51,84)"/>
<path d="M0 0 C4.4762723 0.6707564 8.76534089 1.66032176 13.125 2.875 C14.32382813 3.20242188 15.52265625 3.52984375 16.7578125 3.8671875 C19.73928291 4.90890608 21.64044771 5.94566343 24 8 C15.36515006 7.47722203 7.20480248 6.11308563 0 1 C0 0.67 0 0.34 0 0 Z " fill="#2E3547" transform="translate(76,387)"/>
<path d="M0 0 C0.69867188 -0.00386719 1.39734375 -0.00773437 2.1171875 -0.01171875 C5.87074298 -0.00463657 9.35151145 0.22712977 13 1.125 C9.12450848 3.72579405 5.04433874 3.38521984 0.5625 3.3125 C-0.18837891 3.31185547 -0.93925781 3.31121094 -1.71289062 3.31054688 C-5.60058598 3.27977356 -9.2043157 3.06826151 -13 2.125 C-13 1.795 -13 1.465 -13 1.125 C-8.66349094 0.05781222 -4.43884995 -0.02456928 0 0 Z " fill="#575D73" transform="translate(105,46.875)"/>
<path d="M0 0 C-3.28463659 2.18975773 -6.20696275 2.99806563 -10 4 C-10.33 5.65 -10.66 7.3 -11 9 C-12.875 9.625 -12.875 9.625 -15 10 C-15.66 9.34 -16.32 8.68 -17 8 C-15.35 7.67 -13.7 7.34 -12 7 C-13.65 6.67 -15.3 6.34 -17 6 C-14.64350301 3.31127557 -12.36421235 2.0806149 -9.0625 0.75 C-8.20785156 0.39421875 -7.35320312 0.0384375 -6.47265625 -0.328125 C-3.82854634 -1.04658772 -2.54131429 -0.91982605 0 0 Z " fill="#414B60" transform="translate(488,52)"/>
<path d="M0 0 C2.97 0 5.94 0 9 0 C9 0.33 9 0.66 9 1 C6.69 1 4.38 1 2 1 C2 3.64 2 6.28 2 9 C6.455 8.505 6.455 8.505 11 8 C11 8.99 11 9.98 11 11 C7.37 11 3.74 11 0 11 C0 7.37 0 3.74 0 0 Z " fill="#171E38" transform="translate(280,261)"/>
<path d="M0 0 C2.31 0 4.62 0 7 0 C7.33 0.99 7.66 1.98 8 3 C9.81296615 3.62092718 9.81296615 3.62092718 12 4 C16.65454545 5.44069264 16.65454545 5.44069264 18.3125 8.125 C18.6528125 9.053125 18.6528125 9.053125 19 10 C14.75707468 8.39369175 10.72974893 6.4231838 6.6875 4.375 C6.04232422 4.05015625 5.39714844 3.7253125 4.73242188 3.390625 C3.15402459 2.59558044 1.57688306 1.79804366 0 1 C0 0.67 0 0.34 0 0 Z " fill="#414656" transform="translate(166,130)"/>
<path d="M0 0 C0.66 0.33 1.32 0.66 2 1 C1.53687445 21.84064969 1.53687445 21.84064969 -3 31 C-3.66 31.33 -4.32 31.66 -5 32 C-4.54177532 28.53058454 -4.10868317 25.32604951 -3 22 C-2.34 22 -1.68 22 -1 22 C-0.67 14.74 -0.34 7.48 0 0 Z " fill="#9C9FAB" transform="translate(129,112)"/>
<path d="M0 0 C0.66 0.33 1.32 0.66 2 1 C1.34 1.66 0.68 2.32 0 3 C-1.03842565 5.31648799 -2.0421975 7.64903024 -3 10 C-3.66 9.01 -4.32 8.02 -5 7 C-9.47883696 7.44703986 -9.47883696 7.44703986 -13 10 C-13.99 9.34 -14.98 8.68 -16 8 C-13.37964982 6.63610475 -10.75443001 5.28367827 -8.125 3.9375 C-7.37863281 3.54755859 -6.63226563 3.15761719 -5.86328125 2.75585938 C-4.79013672 2.20961914 -4.79013672 2.20961914 -3.6953125 1.65234375 C-3.03547363 1.31195068 -2.37563477 0.97155762 -1.69580078 0.62084961 C-1.13618652 0.41596924 -0.57657227 0.21108887 0 0 Z " fill="#485068" transform="translate(416,84)"/>
<path d="M0 0 C3.82669043 3.42388092 5.72278474 6.00724943 7 11 C4.6568787 10.74438677 2.32156597 10.40729228 0 10 C-1.49106457 7.01787087 -1.11941467 4.28390342 -1 1 C-0.67 0.67 -0.34 0.34 0 0 Z " fill="#262F4B" transform="translate(321,276)"/>
<path d="M0 0 C6.19518473 0.41588046 11.26689311 1.60251894 17 4 C17 4.33 17 4.66 17 5 C15.56274129 5.16873478 14.12518162 5.33490737 12.6875 5.5 C11.88699219 5.5928125 11.08648438 5.685625 10.26171875 5.78125 C8 6 8 6 5 6 C3.0750353 4.17806158 1.62464469 2.10764717 0 0 Z " fill="#222947" transform="translate(514,48)"/>
<path d="M0 0 C1.70736328 0.00773438 1.70736328 0.00773438 3.44921875 0.015625 C4.57972656 0.01046875 5.71023438 0.0053125 6.875 0 C10.049979 0.25856116 12.27574724 0.91297055 15.13671875 2.265625 C11.94266666 4.39499306 11.64484214 4.49980711 8.125 4.0234375 C7.36767578 3.92675781 6.61035156 3.83007812 5.83007812 3.73046875 C4.65155273 3.56224609 4.65155273 3.56224609 3.44921875 3.390625 C2.65193359 3.28621094 1.85464844 3.18179688 1.03320312 3.07421875 C-0.93369236 2.81510677 -2.89869892 2.54172846 -4.86328125 2.265625 C-2.86328125 0.265625 -2.86328125 0.265625 0 0 Z " fill="#383F58" transform="translate(453.86328125,226.734375)"/>
<path d="M0 0 C0.33 0.66 0.66 1.32 1 2 C1.66 2 2.32 2 3 2 C1.66216131 7.51858459 -2.5122365 10.85009807 -7 14 C-9.2578125 14.703125 -9.2578125 14.703125 -11 15 C-8.80528594 10.48864333 -6.58826282 8.93726652 -2 7 C-2 6.01 -2 5.02 -2 4 C-1.34 3.67 -0.68 3.34 0 3 C0 2.01 0 1.02 0 0 Z " fill="#565A6C" transform="translate(172,255)"/>
<path d="M0 0 C-0.969375 0.12375 -1.93875 0.2475 -2.9375 0.375 C-4.4534375 0.684375 -4.4534375 0.684375 -6 1 C-6.33 1.66 -6.66 2.32 -7 3 C-8.32 3 -9.64 3 -11 3 C-11.33 3.99 -11.66 4.98 -12 6 C-12.66 6 -13.32 6 -14 6 C-14 6.99 -14 7.98 -14 9 C-16.97 8.505 -16.97 8.505 -20 8 C-16.98467341 4.61500597 -14.17665728 2.91559195 -10 1.1875 C-8.96875 0.74792969 -7.9375 0.30835938 -6.875 -0.14453125 C-3.98133776 -1.00555303 -2.76052896 -1.08164957 0 0 Z " fill="#4E546A" transform="translate(92,50)"/>
<path d="M0 0 C0.33 0.66 0.66 1.32 1 2 C-0.12148438 1.96519531 -0.12148438 1.96519531 -1.265625 1.9296875 C-2.25046875 1.91164063 -3.2353125 1.89359375 -4.25 1.875 C-5.22453125 1.85179687 -6.1990625 1.82859375 -7.203125 1.8046875 C-10.0196498 2.00137219 -11.60949036 2.55431084 -14 4 C-14.66 3.34 -15.32 2.68 -16 2 C-18.65537372 1.43479997 -21.29144713 1.26211802 -24 1 C-24 0.67 -24 0.34 -24 0 C-16.01160677 -1.26132525 -8.0047171 -1.17416131 0 0 Z " fill="#4E5262" transform="translate(335,264)"/>
<path d="M0 0 C7.42857143 3.14285714 7.42857143 3.14285714 11 5 C10.67 5.66 10.34 6.32 10 7 C8.68 6.67 7.36 6.34 6 6 C5.67 6.66 5.34 7.32 5 8 C2.525 7.01 2.525 7.01 0 6 C0 5.34 0 4.68 0 4 C-0.66 3.67 -1.32 3.34 -2 3 C-1.34 2.01 -0.68 1.02 0 0 Z " fill="#222C48" transform="translate(308,304)"/>
<path d="M0 0 C0.99 0.495 0.99 0.495 2 1 C2 1.66 2 2.32 2 3 C2.99 2.67 3.98 2.34 5 2 C7.41015625 2.85546875 7.41015625 2.85546875 10.0625 4.1875 C10.94035156 4.61417969 11.81820313 5.04085937 12.72265625 5.48046875 C15.18454484 7.12313541 15.96548853 8.27052624 17 11 C13.10391502 9.51095825 9.40902982 7.75621287 5.6875 5.875 C4.61886719 5.33617187 3.55023438 4.79734375 2.44921875 4.2421875 C1.23685547 3.62730469 1.23685547 3.62730469 0 3 C0 2.01 0 1.02 0 0 Z " fill="#515666" transform="translate(274,182)"/>
<path d="M0 0 C0 0.66 0 1.32 0 2 C-0.61875 2.28875 -1.2375 2.5775 -1.875 2.875 C-4.13325765 3.93720042 -4.13325765 3.93720042 -6 6 C-6.556875 5.649375 -7.11375 5.29875 -7.6875 4.9375 C-10.53886783 3.78154007 -12.08517222 4.19032562 -15 5 C-12.86699672 2.63442627 -11.04050601 1.37032472 -8.0625 0.25 C-7.39347656 -0.01296875 -6.72445313 -0.2759375 -6.03515625 -0.546875 C-3.68352509 -1.07046274 -2.26382477 -0.74954377 0 0 Z " fill="#4F556A" transform="translate(517,322)"/>
<path d="M0 0 C5.94 0.99 5.94 0.99 12 2 C12 2.33 12 2.66 12 3 C14.97 3.33 17.94 3.66 21 4 C21 4.33 21 4.66 21 5 C14.28600625 6.17228462 9.17994554 6.12720136 3 3 C2.01 2.01 1.02 1.02 0 0 Z " fill="#6B7080" transform="translate(140,266)"/>
<path d="M0 0 C9.9543927 -0.61785886 9.9543927 -0.61785886 13.75 1.625 C15.41401228 4.78662333 14.92177046 6.62017497 14 10 C13.34 10 12.68 10 12 10 C11.87625 9.030625 11.7525 8.06125 11.625 7.0625 C11.41875 6.051875 11.2125 5.04125 11 4 C10.34 3.67 9.68 3.34 9 3 C9 2.34 9 1.68 9 1 C6.03 1 3.06 1 0 1 C0 0.67 0 0.34 0 0 Z " fill="#595E6F" transform="translate(280,260)"/>
<path d="M0 0 C0 1.98 0 3.96 0 6 C-0.33 5.34 -0.66 4.68 -1 4 C-1.99 5.32 -2.98 6.64 -4 8 C-6.31 7.34 -8.62 6.68 -11 6 C-10.34 5.67 -9.68 5.34 -9 5 C-9 4.34 -9 3.68 -9 3 C-7.02 3 -5.04 3 -3 3 C-3 2.34 -3 1.68 -3 1 C-1 0 -1 0 0 0 Z " fill="#15203C" transform="translate(283,216)"/>
<path d="M0 0 C0.556875 0.33 1.11375 0.66 1.6875 1 C4.30284522 2.1309601 6.1806646 2.15662974 9 2 C9.103125 2.639375 9.20625 3.27875 9.3125 3.9375 C9.6528125 4.9584375 9.6528125 4.9584375 10 6 C10.99 6.33 11.98 6.66 13 7 C9.44485632 8.18504789 8.70503488 7.77142408 5.375 6.3125 C4.57835937 5.97863281 3.78171875 5.64476562 2.9609375 5.30078125 C1 4 1 4 0.2265625 1.85546875 C0.15179688 1.24316406 0.07703125 0.63085938 0 0 Z " fill="#3C4157" transform="translate(186,138)"/>
<path d="M0 0 C3.35111834 2.23407889 4.81553956 3.26215824 5.8125 7.25 C5.874375 8.1575 5.93625 9.065 6 10 C4.35 10.33 2.7 10.66 1 11 C0 3.375 0 3.375 0 0 Z " fill="#131933" transform="translate(360,244)"/>
<path d="M0 0 C-5.90244471 4.06612857 -10.89945397 4.74319906 -18 5 C-4.07616975 -2.03808487 -4.07616975 -2.03808487 0 0 Z " fill="#4E5364" transform="translate(108,162)"/>
<path d="M0 0 C9.46045504 0.96208017 9.46045504 0.96208017 13 3 C13.8125 5.125 13.8125 5.125 14 7 C9.0276578 5.50829734 4.58154261 3.39542583 0 1 C0 0.67 0 0.34 0 0 Z " fill="#4E5262" transform="translate(131,113)"/>
<path d="M0 0 C-3.11016455 3.28788824 -6.01618925 5.83735988 -10 8 C-9.37312706 5.07459296 -8.64872507 2.5164751 -7 0 C-4.04680182 -1.23843794 -3.12561472 -1.04187157 0 0 Z " fill="#424C5D" transform="translate(547,379)"/>
<path d="M0 0 C2.0625 1.6875 2.0625 1.6875 4 4 C3.75 6.75 3.75 6.75 3 9 C1.02 9 -0.96 9 -3 9 C-2.01 6.03 -1.02 3.06 0 0 Z " fill="#3B445E" transform="translate(118,334)"/>
<path d="M0 0 C3.00648481 0.19190329 5.23406196 0.52459018 7.8125 2.125 C9.58939417 4.93062237 9.69255124 7.74104317 10 11 C9.9175 10.38125 9.835 9.7625 9.75 9.125 C9.20005805 6.8234856 9.20005805 6.8234856 7 5.875 C6.34 5.58625 5.68 5.2975 5 5 C4.67 4.34 4.34 3.68 4 3 C0.97065509 2.34227572 0.97065509 2.34227572 -2 2 C-1.34 1.34 -0.68 0.68 0 0 Z " fill="#757887" transform="translate(325,271)"/>
<path d="M0 0 C1.60294922 0.15275391 1.60294922 0.15275391 3.23828125 0.30859375 C4.45064453 0.43427734 4.45064453 0.43427734 5.6875 0.5625 C5.3575 1.2225 5.0275 1.8825 4.6875 2.5625 C2.39608714 2.61634521 0.10431812 2.65522087 -2.1875 2.6875 C-4.10175781 2.72230469 -4.10175781 2.72230469 -6.0546875 2.7578125 C-9.3125 2.5625 -9.3125 2.5625 -11.3125 0.5625 C-7.36602382 -0.42594951 -4.03857036 -0.39941905 0 0 Z " fill="#0A0F29" transform="translate(460.3125,267.4375)"/>
<path d="M0 0 C0.33 0 0.66 0 1 0 C1 2.97 1 5.94 1 9 C1.66 9 2.32 9 3 9 C6.34821429 15.96428571 6.34821429 15.96428571 5 20 C0.92936486 13.16714816 -0.76258253 7.96475086 0 0 Z " fill="#666D7D" transform="translate(435,244)"/>
<path d="M0 0 C3 3 3 3 3.328125 5.375 C3.30234375 6.24125 3.2765625 7.1075 3.25 8 C3.23453125 8.86625 3.2190625 9.7325 3.203125 10.625 C3 13 3 13 2 16 C1.34 16 0.68 16 0 16 C0 10.72 0 5.44 0 0 Z " fill="#1C2139" transform="translate(173,241)"/>
<path d="M0 0 C-0.33 0.99 -0.66 1.98 -1 3 C-2.3303125 3.185625 -2.3303125 3.185625 -3.6875 3.375 C-6.712419 3.94573943 -9.16532345 4.8508068 -12 6 C-12.99 6 -13.98 6 -15 6 C-9.77416798 1.64513998 -6.90987329 -0.31408515 0 0 Z " fill="#565D72" transform="translate(153,227)"/>
<path d="M0 0 C0.33 0.99 0.66 1.98 1 3 C0.01 4.485 0.01 4.485 -1 6 C-3.64 5.34 -6.28 4.68 -9 4 C-3.7826087 0 -3.7826087 0 0 0 Z M1 1 C3 2 3 2 3 2 Z " fill="#343B54" transform="translate(379,104)"/>
<path d="M0 0 C0.915969 2.747907 1.39220802 5.13766414 1.75 8 C1.86859375 8.86625 1.9871875 9.7325 2.109375 10.625 C2 13 2 13 0.515625 14.8125 C0.01546875 15.204375 -0.4846875 15.59625 -1 16 C-1.85330338 10.16524985 -2.48351814 5.55139349 0 0 Z " fill="#5C6376" transform="translate(133,240)"/>
<path d="M0 0 C0.66 0.33 1.32 0.66 2 1 C2 1.99 2 2.98 2 4 C3.32 3.67 4.64 3.34 6 3 C3.3401439 6.44216672 0.09711714 6.99504674 -4 8 C-3.67 7.21625 -3.34 6.4325 -3 5.625 C-1.88133489 3.15667503 -1.88133489 3.15667503 -2 1 C-1.34 0.67 -0.68 0.34 0 0 Z " fill="#4E5469" transform="translate(436,129)"/>
<path d="M0 0 C-0.25 1.875 -0.25 1.875 -1 4 C-3.95545121 6.11103658 -6.43855901 6.19785783 -10 6 C-9.67 5.01 -9.34 4.02 -9 3 C-2.88888889 0 -2.88888889 0 0 0 Z " fill="#41485A" transform="translate(472,115)"/>
<path d="M0 0 C1.0625 1.875 1.0625 1.875 2 4 C1.67 4.66 1.34 5.32 1 6 C1.66 6.33 2.32 6.66 3 7 C2.34 7.66 1.68 8.32 1 9 C-1.125 8.625 -1.125 8.625 -3 8 C-2.67 7.34 -2.34 6.68 -2 6 C-2.66 5.67 -3.32 5.34 -4 5 C-2.68 3.35 -1.36 1.7 0 0 Z " fill="#2F3B53" transform="translate(493,334)"/>
<path d="M0 0 C1 2 1 2 0.3125 4.9375 C-1.06969371 8.16261865 -1.98583 9.30452938 -5 11 C-5.66 11 -6.32 11 -7 11 C-5.22054913 6.95579349 -2.60470327 3.53921513 0 0 Z " fill="#494F62" transform="translate(63,64)"/>
<path d="M0 0 C3.37462715 0.54723683 5.08235 1.0549 8 3 C5.8125 4.625 5.8125 4.625 3 6 C0.1875 5.1875 0.1875 5.1875 -2 4 C-1.34 2.68 -0.68 1.36 0 0 Z " fill="#2F3650" transform="translate(98,322)"/>
<path d="M0 0 C2.9375 0.125 2.9375 0.125 6 1 C7.375 3.5625 7.375 3.5625 8 6 C5.36 5.01 2.72 4.02 0 3 C-0.33 4.32 -0.66 5.64 -1 7 C-1.04254356 5.00045254 -1.04080783 2.99958364 -1 1 C-0.67 0.67 -0.34 0.34 0 0 Z " fill="#5E6276" transform="translate(281,279)"/>
<path d="M0 0 C2.35119399 3.52679099 2.21443452 5.02879485 2.125 9.1875 C2.10695313 10.27417969 2.08890625 11.36085937 2.0703125 12.48046875 C2.03550781 13.72763672 2.03550781 13.72763672 2 15 C-0.45406016 12.54593984 -0.38381215 11.4528512 -0.6875 8.0625 C-0.77386719 7.18722656 -0.86023438 6.31195313 -0.94921875 5.41015625 C-1 3 -1 3 0 0 Z " fill="#737A89" transform="translate(478,240)"/>
<path d="M0 0 C1.41791408 0.45445964 2.83428046 0.91374944 4.25 1.375 C5.43335938 1.75785156 5.43335938 1.75785156 6.640625 2.1484375 C8.86627958 2.95173667 10.90931672 3.89711662 13 5 C9.24250465 5.98410592 7.37430684 6.14124787 3.6875 4.75 C1 3 1 3 0 0 Z " fill="#3E4358" transform="translate(504,160)"/>
<path d="M0 0 C1.32 0.33 2.64 0.66 4 1 C1.03 3.64 -1.94 6.28 -5 9 C-5.66 8.67 -6.32 8.34 -7 8 C-5.71034824 6.62437146 -4.37310707 5.29233607 -3 4 C-2.34 4 -1.68 4 -1 4 C-0.67 2.68 -0.34 1.36 0 0 Z " fill="#444A5E" transform="translate(115,152)"/>
<path d="M0 0 C0.98484375 0.00902344 1.9696875 0.01804687 2.984375 0.02734375 C4.10585938 0.04474609 4.10585938 0.04474609 5.25 0.0625 C5.25 0.3925 5.25 0.7225 5.25 1.0625 C0.17523206 2.32555335 -4.47796354 3.33286084 -9.75 3.0625 C-9.75 2.4025 -9.75 1.7425 -9.75 1.0625 C-6.43929162 0.06140485 -3.44915231 -0.04106134 0 0 Z " fill="#31354B" transform="translate(322.75,338.9375)"/>
<path d="M0 0 C2 3 2 3 4 6 C6.05003955 7.19232613 6.05003955 7.19232613 8 8 C7.01 8.495 7.01 8.495 6 9 C5.67 9.66 5.34 10.32 5 11 C-0.7388601 4.5253886 -0.7388601 4.5253886 -1 1 C-0.67 0.67 -0.34 0.34 0 0 Z " fill="#3E4459" transform="translate(134,255)"/>
<path d="M0 0 C0.66 0.33 1.32 0.66 2 1 C1.1875 3.4375 1.1875 3.4375 0 6 C-0.99 6.33 -1.98 6.66 -3 7 C-5.1875 5.5625 -5.1875 5.5625 -7 4 C-1.7265625 0.77734375 -1.7265625 0.77734375 0 0 Z " fill="#4F586D" transform="translate(448,68)"/>
<path d="M0 0 C0.33 0.99 0.66 1.98 1 3 C1.99 2.01 2.98 1.02 4 0 C4.66 0.66 5.32 1.32 6 2 C4.6875 3.5 4.6875 3.5 3 5 C2.01 5 1.02 5 0 5 C0 6.98 0 8.96 0 11 C-0.33 11 -0.66 11 -1 11 C-1.125 3.375 -1.125 3.375 0 0 Z " fill="#4D5970" transform="translate(49,90)"/>
<path d="M0 0 C0.66 0.33 1.32 0.66 2 1 C2 1.99 2 2.98 2 4 C0 5.6875 0 5.6875 -2 7 C-2.33 6.01 -2.66 5.02 -3 4 C-3.66 3.34 -4.32 2.68 -5 2 C-2.625 0.9375 -2.625 0.9375 0 0 Z " fill="#343B54" transform="translate(439,73)"/>
<path d="M0 0 C1.32 0 2.64 0 4 0 C4.33 1.65 4.66 3.3 5 5 C5.99 5 6.98 5 8 5 C8 5.66 8 6.32 8 7 C4.54074837 5.7508258 1.85306797 4.32472205 -1 2 C-0.67 1.34 -0.34 0.68 0 0 Z " fill="#444961" transform="translate(209,149)"/>
<path d="M0 0 C2.31 0 4.62 0 7 0 C7.66 1.65 8.32 3.3 9 5 C5.22454612 3.90931332 2.52956528 3.0916909 0 0 Z " fill="#565B70" transform="translate(166,130)"/>
<path d="M0 0 C11.52164009 -0.18451025 11.52164009 -0.18451025 17 1 C17 1.33 17 1.66 17 2 C10.72532201 3.0748291 6.09339169 2.88341198 0 1 C0 0.67 0 0.34 0 0 Z " fill="#9EA0AB" transform="translate(448,269)"/>
<path d="M0 0 C1.98 0 3.96 0 6 0 C6 0.66 6 1.32 6 2 C6.99 2 7.98 2 9 2 C9 2.99 9 3.98 9 5 C5.22454612 3.90931332 2.52956528 3.0916909 0 0 Z " fill="#545C70" transform="translate(152,123)"/>
<path d="M0 0 C4.50802601 1.25805377 7.4912812 2.90407165 11 6 C7.89953913 7.03348696 6.94389782 7.17755913 4 6 C3.67 5.01 3.34 4.02 3 3 C2.34 3 1.68 3 1 3 C0.67 2.01 0.34 1.02 0 0 Z " fill="#686D7F" transform="translate(252,113)"/>
<path d="M0 0 C3.7910119 1.44950455 7.3874638 3.15172566 11 5 C10.01 5.66 9.02 6.32 8 7 C8 6.34 8 5.68 8 5 C5.69 4.67 3.38 4.34 1 4 C0.67 2.68 0.34 1.36 0 0 Z " fill="#696E7B" transform="translate(132,53)"/>
<path d="M0 0 C1.45922693 0.11409593 2.91740598 0.24165544 4.375 0.375 C5.59316406 0.47941406 5.59316406 0.47941406 6.8359375 0.5859375 C9 1 9 1 11 3 C7.44706507 4.14947895 6.20023331 4.0868937 2.6875 2.5625 C1.800625 2.046875 0.91375 1.53125 0 1 C0 0.67 0 0.34 0 0 Z " fill="#484F62" transform="translate(514,48)"/>
<path d="M0 0 C0.66 0.66 1.32 1.32 2 2 C1.01 3.485 1.01 3.485 0 5 C-2.97 4.505 -2.97 4.505 -6 4 C-6 3.01 -6 2.02 -6 1 C-5.38125 1.20625 -4.7625 1.4125 -4.125 1.625 C-3.073125 1.810625 -3.073125 1.810625 -2 2 C-1.34 1.34 -0.68 0.68 0 0 Z " fill="#171F3A" transform="translate(302,277)"/>
<path d="M0 0 C0.33 0 0.66 0 1 0 C2.125 7.75 2.125 7.75 1 10 C0.34 10 -0.32 10 -1 10 C-1.33 7.69 -1.66 5.38 -2 3 C-1.34 3 -0.68 3 0 3 C0 2.01 0 1.02 0 0 Z " fill="#101A31" transform="translate(477,247)"/>
<path d="M0 0 C1.0326802 2.78823655 1.04509293 3.8677274 0.0625 6.75 C-0.288125 7.4925 -0.63875 8.235 -1 9 C-1.99 9 -2.98 9 -4 9 C-2.94124926 5.59687262 -1.99097846 2.98646769 0 0 Z " fill="#495162" transform="translate(250,241)"/>
<path d="M0 0 C0.66 0.99 1.32 1.98 2 3 C0.515 5.475 0.515 5.475 -1 8 C-1 7.01 -1 6.02 -1 5 C-2.98 5.99 -2.98 5.99 -5 7 C-3.47793991 4.37098712 -2.15634036 2.15634036 0 0 Z " fill="#5D657C" transform="translate(256,233)"/>
<path d="M0 0 C1.98 0 3.96 0 6 0 C6 0.66 6 1.32 6 2 C6.99 2.33 7.98 2.66 9 3 C9 3.66 9 4.32 9 5 C5.22454612 3.90931332 2.52956528 3.0916909 0 0 Z " fill="#636878" transform="translate(198,146)"/>
<path d="M0 0 C0.66 0.33 1.32 0.66 2 1 C1.2884375 1.6496875 1.2884375 1.6496875 0.5625 2.3125 C-1.23686957 4.02309613 -1.23686957 4.02309613 -2 7 C-1.34 7.33 -0.68 7.66 0 8 C-1.65 7.67 -3.3 7.34 -5 7 C-5 6.01 -5 5.02 -5 4 C-2.5 1.8125 -2.5 1.8125 0 0 Z " fill="#464F64" transform="translate(398,93)"/>
<path d="M0 0 C1.5625 1.125 1.5625 1.125 3 3 C2.6875 6.1875 2.6875 6.1875 2 9 C1.01 8.67 0.02 8.34 -1 8 C-1.625 5.125 -1.625 5.125 -2 2 C-1.34 1.34 -0.68 0.68 0 0 Z " fill="#444960" transform="translate(554,73)"/>
<path d="M0 0 C0.66 0.33 1.32 0.66 2 1 C-0.625 5.875 -0.625 5.875 -4 7 C-4.66 6.34 -5.32 5.68 -6 5 C-4.02 3.35 -2.04 1.7 0 0 Z " fill="#4E5368" transform="translate(70,58)"/>
<path d="M0 0 C0.33 0.66 0.66 1.32 1 2 C-0.65 3.98 -2.3 5.96 -4 8 C-4.99 7.34 -5.98 6.68 -7 6 C-4.69 4.02 -2.38 2.04 0 0 Z " fill="#494E64" transform="translate(501,327)"/>
<path d="M0 0 C0.33 0 0.66 0 1 0 C1 1.98 1 3.96 1 6 C-0.98 6.99 -0.98 6.99 -3 8 C-3.33 7.01 -3.66 6.02 -4 5 C-2.125 2.3125 -2.125 2.3125 0 0 Z " fill="#4A5167" transform="translate(301,272)"/>
<path d="M0 0 C0.66 0.99 1.32 1.98 2 3 C1.125 6.1875 1.125 6.1875 0 9 C-0.66 9 -1.32 9 -2 9 C-1.125 2.25 -1.125 2.25 0 0 Z " fill="#43485E" transform="translate(245,250)"/>
<path d="M0 0 C-2.87164566 2.70272533 -4.30991841 3.94791837 -8.3125 4.25 C-9.199375 4.1675 -10.08625 4.085 -11 4 C-11 3.34 -11 2.68 -11 2 C-7.17679443 0.57741188 -4.08718695 -0.24042276 0 0 Z " fill="#0B142D" transform="translate(97,49)"/>
<path d="M0 0 C5.53846154 0.61538462 5.53846154 0.61538462 7.875 2.5625 C8.431875 3.2740625 8.431875 3.2740625 9 4 C8.01 4.495 8.01 4.495 7 5 C4.5249829 3.88568235 2.32116581 2.41849022 0 1 C0 0.67 0 0.34 0 0 Z " fill="#4E5367" transform="translate(76,387)"/>
<path d="M0 0 C0.33 0.66 0.66 1.32 1 2 C1.66 2 2.32 2 3 2 C3.33 1.34 3.66 0.68 4 0 C4.66 1.65 5.32 3.3 6 5 C5.01 5.495 5.01 5.495 4 6 C3.67 5.34 3.34 4.68 3 4 C1.68 4 0.36 4 -1 4 C-0.67 2.68 -0.34 1.36 0 0 Z " fill="#2A3553" transform="translate(287,266)"/>
<path d="M0 0 C0.33 0.99 0.66 1.98 1 3 C-0.9375 6.1875 -0.9375 6.1875 -3 9 C-3.625 7.1875 -3.625 7.1875 -4 5 C-3.34 4.01 -2.68 3.02 -2 2 C-1.34 2 -0.68 2 0 2 C0 1.34 0 0.68 0 0 Z " fill="#65697C" transform="translate(478,255)"/>
<path d="M0 0 C0.33 0.66 0.66 1.32 1 2 C1.99 2.33 2.98 2.66 4 3 C-0.75 6 -0.75 6 -3 6 C-1.125 1.125 -1.125 1.125 0 0 Z " fill="#414058" transform="translate(440,235)"/>
<path d="M0 0 C2.31 0 4.62 0 7 0 C6.34 1.65 5.68 3.3 5 5 C3.0625 4.1875 3.0625 4.1875 1 3 C0.67 2.01 0.34 1.02 0 0 Z " fill="#2C334E" transform="translate(237,163)"/>
<path d="M0 0 C0.33 0.66 0.66 1.32 1 2 C1.99 2.33 2.98 2.66 4 3 C5.64820195 5.60242414 6 6.86248779 6 10 C3.69 7.36 1.38 4.72 -1 2 C-0.67 1.34 -0.34 0.68 0 0 Z " fill="#686C80" transform="translate(492,149)"/>
<path d="M0 0 C2.125 0.375 2.125 0.375 4 1 C3.67 2.65 3.34 4.3 3 6 C2.34 6 1.68 6 1 6 C-0.625 4 -0.625 4 -2 2 C-1.34 1.34 -0.68 0.68 0 0 Z " fill="#141E39" transform="translate(116,146)"/>
<path d="M0 0 C1.32 0.33 2.64 0.66 4 1 C3.34 2.32 2.68 3.64 2 5 C1.34 5 0.68 5 0 5 C0 4.34 0 3.68 0 3 C-1.32 3.33 -2.64 3.66 -4 4 C-3.67 3.34 -3.34 2.68 -3 2 C-2.01 2 -1.02 2 0 2 C0 1.34 0 0.68 0 0 Z " fill="#111A35" transform="translate(460,63)"/>
<path d="M0 0 C2.62187494 1.04874998 3.79371361 1.64931313 5.25 4.125 C5.4975 4.74375 5.745 5.3625 6 6 C5.01 6.33 4.02 6.66 3 7 C2.67 6.01 2.34 5.02 2 4 C1.34 3.67 0.68 3.34 0 3 C0 2.01 0 1.02 0 0 Z " fill="#626779" transform="translate(542,60)"/>
<path d="M0 0 C1.40182371 2.61673759 2.60495559 5.0371669 3 8 C2.34 8.66 1.68 9.32 1 10 C-0.83691257 6.21812119 -1.15837626 4.05431692 0 0 Z " fill="#333951" transform="translate(51,351)"/>
<path d="M0 0 C0.99 0 1.98 0 3 0 C3.33 2.31 3.66 4.62 4 7 C3.01 6.67 2.02 6.34 1 6 C0.67 4.02 0.34 2.04 0 0 Z " fill="#555B6C" transform="translate(125,349)"/>
<path d="M0 0 C0.99 0.33 1.98 0.66 3 1 C3 2.98 3 4.96 3 7 C2.01 7 1.02 7 0 7 C0 4.69 0 2.38 0 0 Z " fill="#4E556A" transform="translate(320,292)"/>
<path d="M0 0 C0.66 0 1.32 0 2 0 C2 0.99 2 1.98 2 3 C-0.375 4.75 -0.375 4.75 -3 6 C-3.66 5.67 -4.32 5.34 -5 5 C-4.34 4.01 -3.68 3.02 -3 2 C-2.01 2 -1.02 2 0 2 C0 1.34 0 0.68 0 0 Z " fill="#4C5266" transform="translate(470,264)"/>
<path d="M0 0 C6.625 0.75 6.625 0.75 10 3 C7.8125 3.75 7.8125 3.75 5 4 C2.1875 2.0625 2.1875 2.0625 0 0 Z " fill="#666C7F" transform="translate(459,227)"/>
<path d="M0 0 C2 2 4 4 6 6 C5.01 6.495 5.01 6.495 4 7 C1.375 5.5625 1.375 5.5625 -1 4 C-0.67 2.68 -0.34 1.36 0 0 Z " fill="#30384F" transform="translate(298,192)"/>
<path d="M0 0 C0.66 0 1.32 0 2 0 C2 0.66 2 1.32 2 2 C2.66 2.33 3.32 2.66 4 3 C3.34 3 2.68 3 2 3 C2 3.66 2 4.32 2 5 C0.02 4.34 -1.96 3.68 -4 3 C-2.68 2.67 -1.36 2.34 0 2 C0 1.34 0 0.68 0 0 Z " fill="#30374C" transform="translate(272,179)"/>
<path d="M0 0 C5.4611399 0.35233161 5.4611399 0.35233161 8 1 C9.5 3.0625 9.5 3.0625 10 5 C5 3 5 3 0 1 C0 0.67 0 0.34 0 0 Z " fill="#55586C" transform="translate(251,173)"/>
<path d="M0 0 C0.99 0.33 1.98 0.66 3 1 C3 1.66 3 2.32 3 3 C3.66 3.33 4.32 3.66 5 4 C4.01 4.66 3.02 5.32 2 6 C2 5.34 2 4.68 2 4 C1.34 4 0.68 4 0 4 C-0.33 3.01 -0.66 2.02 -1 1 C-0.67 0.67 -0.34 0.34 0 0 Z " fill="#343C53" transform="translate(548,369)"/>
<path d="M0 0 C0.33 0.99 0.66 1.98 1 3 C1.66 3 2.32 3 3 3 C3.625 4.8125 3.625 4.8125 4 7 C3.01 8.485 3.01 8.485 2 10 C0.39644899 6.49223216 -0.22036864 3.85645121 0 0 Z " fill="#4A5060" transform="translate(243,295)"/>
<path d="M0 0 C0.99 0 1.98 0 3 0 C3 0.66 3 1.32 3 2 C3.66 2.33 4.32 2.66 5 3 C4.195625 3.12375 3.39125 3.2475 2.5625 3.375 C1.2940625 3.684375 1.2940625 3.684375 0 4 C-0.33 4.66 -0.66 5.32 -1 6 C-1 5.01 -1 4.02 -1 3 C-0.34 3 0.32 3 1 3 C0.67 2.01 0.34 1.02 0 0 Z " fill="#141C36" transform="translate(466,230)"/>
<path d="M0 0 C2.31 0 4.62 0 7 0 C7 0.66 7 1.32 7 2 C7.99 2.33 8.98 2.66 10 3 C4.58461538 3.36923077 4.58461538 3.36923077 1.625 1.5 C1.08875 1.005 0.5525 0.51 0 0 Z " fill="#61697B" transform="translate(310,211)"/>
<path d="M0 0 C-2.17424117 2.50037734 -3.73045798 3.43628586 -7 4 C-7.33 3.01 -7.66 2.02 -8 1 C-5.07175348 0.02391783 -3.04386724 -0.08226668 0 0 Z " fill="#3D435C" transform="translate(373,166)"/>
<path d="M0 0 C1.32 1.32 2.64 2.64 4 4 C3.01 4.495 3.01 4.495 2 5 C-0.03144641 4.06553465 -2.03533587 3.06775224 -4 2 C-2.68 1.34 -1.36 0.68 0 0 Z " fill="#6D7085" transform="translate(233,161)"/>
<path d="M0 0 C0.66 0.33 1.32 0.66 2 1 C-1.32307692 4.93846154 -1.32307692 4.93846154 -4.75 5.25 C-5.4925 5.1675 -6.235 5.085 -7 5 C-2.25 1.125 -2.25 1.125 0 0 Z " fill="#575C6E" transform="translate(428,78)"/>
<path d="M0 0 C6.875 3.75 6.875 3.75 8 6 C6.68 6 5.36 6 4 6 C4 5.34 4 4.68 4 4 C3.34 4 2.68 4 2 4 C2 3.34 2 2.68 2 2 C1.34 2 0.68 2 0 2 C0 1.34 0 0.68 0 0 Z " fill="#5F6773" transform="translate(534,54)"/>
<path d="" fill="#FFFFFF" transform="translate(0,0)"/>
<path d="" fill="#FFFFFF" transform="translate(0,0)"/>
<path d="" fill="#FFFFFF" transform="translate(0,0)"/>
<path d="" fill="#FFFFFF" transform="translate(0,0)"/>
<path d="" fill="#FFFFFF" transform="translate(0,0)"/>
<path d="" fill="#FFFFFF" transform="translate(0,0)"/>
<path d="" fill="#FFFFFF" transform="translate(0,0)"/>
<path d="" fill="#FFFFFF" transform="translate(0,0)"/>
<path d="" fill="#FFFFFF" transform="translate(0,0)"/>
<path d="" fill="#FFFFFF" transform="translate(0,0)"/>
<path d="" fill="#FFFFFF" transform="translate(0,0)"/>
<path d="" fill="#FFFFFF" transform="translate(0,0)"/>
<path d="" fill="#FFFFFF" transform="translate(0,0)"/>
<path d="" fill="#FFFFFF" transform="translate(0,0)"/>
<path d="" fill="#FFFFFF" transform="translate(0,0)"/>
<path d="" fill="#FFFFFF" transform="translate(0,0)"/>
<path d="" fill="#FFFFFF" transform="translate(0,0)"/>
<path d="" fill="#FFFFFF" transform="translate(0,0)"/>
<path d="" fill="#FFFFFF" transform="translate(0,0)"/>
<path d="" fill="#FFFFFF" transform="translate(0,0)"/>
<path d="" fill="#FFFFFF" transform="translate(0,0)"/>
<path d="" fill="#FFFFFF" transform="translate(0,0)"/>
<path d="" fill="#FFFFFF" transform="translate(0,0)"/>
<path d="" fill="#FFFFFF" transform="translate(0,0)"/>
<path d="" fill="#FFFFFF" transform="translate(0,0)"/>
<path d="" fill="#FFFFFF" transform="translate(0,0)"/>
<path d="" fill="#FFFFFF" transform="translate(0,0)"/>
<path d="" fill="#FFFFFF" transform="translate(0,0)"/>
<path d="" fill="#FFFFFF" transform="translate(0,0)"/>
<path d="" fill="#FFFFFE" transform="translate(0,0)"/>
<path d="" fill="#FFFFFF" transform="translate(0,0)"/>
<path d="" fill="#FFFFFF" transform="translate(0,0)"/>
<path d="" fill="#FFFFFF" transform="translate(0,0)"/>
<path d="" fill="#FFFFFF" transform="translate(0,0)"/>
<path d="" fill="#FFFFFF" transform="translate(0,0)"/>
<path d="" fill="#FFFFFF" transform="translate(0,0)"/>
<path d="" fill="#FFFFFF" transform="translate(0,0)"/>
<path d="" fill="#FFFFFF" transform="translate(0,0)"/>
<path d="" fill="#FFFFFF" transform="translate(0,0)"/>
<path d="" fill="#FFFFFF" transform="translate(0,0)"/>
<path d="" fill="#FFFFFF" transform="translate(0,0)"/>
<path d="" fill="#FFFFFF" transform="translate(0,0)"/>
<path d="" fill="#FFFFFF" transform="translate(0,0)"/>
<path d="" fill="#FFFFFF" transform="translate(0,0)"/>
<path d="" fill="#FFFFFF" transform="translate(0,0)"/>
<path d="" fill="#FFFFFF" transform="translate(0,0)"/>
<path d="" fill="#FFFFFF" transform="translate(0,0)"/>
<path d="" fill="#FFFFFF" transform="translate(0,0)"/>
<path d="" fill="#FFFFFF" transform="translate(0,0)"/>
<path d="" fill="#FFFFFF" transform="translate(0,0)"/>
<path d="" fill="#FFFFFF" transform="translate(0,0)"/>
<path d="" fill="#FFFFFF" transform="translate(0,0)"/>
<path d="" fill="#FFFFFF" transform="translate(0,0)"/>
<path d="" fill="#FFFFFF" transform="translate(0,0)"/>
<path d="" fill="#FFFFFF" transform="translate(0,0)"/>
<path d="" fill="#FFFFFF" transform="translate(0,0)"/>
<path d="" fill="#FFFFFF" transform="translate(0,0)"/>
<path d="" fill="#FFFFFF" transform="translate(0,0)"/>
<path d="" fill="#FFFFFF" transform="translate(0,0)"/>
<path d="" fill="#FFFFFF" transform="translate(0,0)"/>
<path d="" fill="#FFFFFF" transform="translate(0,0)"/>
<path d="" fill="#FFFFFF" transform="translate(0,0)"/>
<path d="" fill="#FFFFFF" transform="translate(0,0)"/>
<path d="" fill="#FFFFFF" transform="translate(0,0)"/>
<path d="" fill="#FFFFFF" transform="translate(0,0)"/>
<path d="" fill="#FFFFFF" transform="translate(0,0)"/>
</svg>
