<?xml version="1.0" encoding="UTF-8"?>
<svg version="1.1" xmlns="http://www.w3.org/2000/svg" width="1254" height="1254">
<path d="M0 0 C413.82 0 827.64 0 1254 0 C1254 413.82 1254 827.64 1254 1254 C840.18 1254 426.36 1254 0 1254 C0 840.18 0 426.36 0 0 Z " fill="#FDFDFD" transform="translate(0,0)"/>
<path d="M0 0 C1.40555517 0.71639146 2.81124331 1.43252209 4.21704102 2.1484375 C4.96905792 2.53386719 5.72107483 2.91929687 6.49588013 3.31640625 C10.91015556 5.56984795 15.34532987 7.78171102 19.77734375 10 C21.68949975 10.9582403 23.60160867 11.91657456 25.51367188 12.875 C26.47200928 13.35517578 27.43034668 13.83535156 28.41772461 14.33007812 C30.38129302 15.31440178 32.34450481 16.2994371 34.30737305 17.28515625 C37.19224267 18.73368233 40.07841641 20.17958093 42.96484375 21.625 C43.8306456 22.06048157 44.69644745 22.49596313 45.58848572 22.94464111 C50.34898924 25.32510985 55.14049554 27.58703763 60.01844788 29.71711731 C66.41342327 32.52794157 72.56312119 35.83958882 78.60546875 39.3359375 C81.01964353 40.64745471 81.01964353 40.64745471 84.10488892 41.90248108 C87.8180466 43.48330387 91.42852445 45.2468815 95.02880859 47.06811523 C95.71233587 47.41185149 96.39586315 47.75558775 97.10010338 48.10974026 C99.3702388 49.25266205 101.63849585 50.39923604 103.90625 51.546875 C105.09215099 52.14687254 105.09215099 52.14687254 106.30200958 52.75899124 C110.63145084 54.95043723 114.95945776 57.14470095 119.28701782 59.33985901 C126.22344573 62.85686338 133.16778169 66.35815934 140.11310768 69.85755253 C145.3731407 72.50858718 150.62995417 75.16565786 155.88037109 77.83569336 C161.0011452 80.43947866 166.12953807 83.02763458 171.26362228 85.60507011 C173.20970383 86.5854898 175.15296473 87.57152953 177.09328079 88.56331062 C179.79404477 89.94266159 182.50410762 91.30176328 185.21728516 92.65649414 C186.01214325 93.06830429 186.80700134 93.48011444 187.62594604 93.90440369 C188.36834534 94.27010468 189.11074463 94.63580566 189.87564087 95.0125885 C190.51301996 95.33496522 191.15039906 95.65734194 191.80709267 95.98948765 C197.64761795 97.54031706 202.89426235 94.32544423 207.9475708 91.73980713 C208.74037343 91.3422924 209.53317605 90.94477767 210.350003 90.53521705 C213.00185714 89.20322517 215.64779869 87.85989179 218.29394531 86.51660156 C220.19626524 85.55832745 222.09896463 84.6008063 224.00201416 83.64398193 C228.09985548 81.58196109 232.19523344 79.51515301 236.28885651 77.44477081 C242.77494557 74.1650904 249.26801003 70.8993945 255.76239014 67.63616943 C274.22948448 58.3543662 292.68720665 49.05402404 311.13769531 39.73925781 C321.32789336 34.5948708 331.52392933 29.46224162 341.72621989 24.34187675 C348.16905174 21.10745287 354.60443266 17.85880598 361.03450632 14.59909868 C365.05963804 12.56287523 369.09154961 10.54037076 373.1253891 8.52146149 C374.97835895 7.59072365 376.82861611 6.65455962 378.67572021 5.7122345 C399.9568539 -5.1359961 419.09206223 -11.33737531 442.90625 -4.453125 C446.06213799 -3.35393801 448.96546281 -2.036213 451.90625 -0.453125 C452.71578125 -0.02128906 453.5253125 0.41054688 454.359375 0.85546875 C471.22621086 10.40127003 480.30333823 24.45747414 485.90625 42.546875 C486.69078227 45.92441344 487.03312095 49.04143435 487.04047108 52.50590229 C487.04492892 53.48482451 487.04938676 54.46374673 487.05397969 55.47233325 C487.05370315 57.07415077 487.05370315 57.07415077 487.05342102 58.70832825 C487.05709771 59.84878953 487.0607744 60.98925082 487.0645625 62.16427153 C487.07559581 65.99469142 487.07944265 69.82508418 487.08325195 73.65551758 C487.08898606 76.39873486 487.09615127 79.14194809 487.10316467 81.88516235 C487.12290803 90.12497518 487.13299413 98.3647892 487.14189246 106.60461977 C487.14628022 110.49021025 487.15164589 114.37579937 487.15688133 118.26138878 C487.17389405 131.18828581 487.18838536 144.115182 487.19563007 157.04208851 C487.19753981 160.39516514 487.19946016 163.74824176 487.20141602 167.10131836 C487.20189976 167.93465664 487.2023835 168.76799491 487.2028819 169.62658586 C487.21117146 183.10790902 487.23648999 196.58914313 487.26899669 210.07042746 C487.30213931 223.92913686 487.32008546 237.78780114 487.32327431 251.64655036 C487.32543312 259.42041176 487.33408873 267.19414346 487.35973549 274.96796608 C487.38154142 281.59273061 487.3894448 288.21733393 487.37976871 294.84213028 C487.37525184 298.21641662 487.37917861 301.59010385 487.39653015 304.96438789 C487.51604725 329.59681951 484.94127433 349.97511346 467.0390625 368.4765625 C454.86118112 379.84595383 439.43152811 385.72197055 422.89255333 385.67550945 C422.09906654 385.67726249 421.30557974 385.67901553 420.4880479 385.68082169 C417.82480867 385.68547968 415.16162408 385.68301669 412.49838257 385.68058777 C410.57134953 385.68245585 408.64431686 385.68475654 406.7172848 385.68745309 C401.4180674 385.69357801 396.11886577 385.69343668 390.81964564 385.69225872 C385.10576429 385.69205488 379.39188802 385.69757187 373.67800903 385.70231628 C362.4812806 385.71062752 351.28455743 385.71337135 340.08782618 385.71392866 C330.98623989 385.71440366 321.88465535 385.7164576 312.78306961 385.71962929 C291.1808261 385.727004 269.57858422 385.73315396 247.97633934 385.73263073 C247.28545946 385.73261515 246.59457957 385.73259957 245.88276393 385.73258352 C242.38113938 385.73250041 238.87951483 385.73240137 235.37789027 385.73229881 C234.68246292 385.73227887 233.98703556 385.73225892 233.27053465 385.73223837 C231.86420997 385.73219794 230.4578853 385.73215614 229.05156063 385.73211298 C207.17873559 385.73150043 185.30592607 385.73900295 163.43310547 385.75268555 C138.85497265 385.76805414 114.276851 385.77663861 89.69871294 385.77572232 C76.68690513 385.77539031 63.67511481 385.77813919 50.663311 385.78890038 C39.58344126 385.79800497 28.50359692 385.80018099 17.42372505 385.79339095 C11.77168524 385.79012538 6.11969418 385.79007044 0.467659 385.7987442 C-4.7102427 385.80660852 -9.88805696 385.80517839 -15.06595652 385.79646007 C-16.93542688 385.79492493 -18.80490376 385.79674178 -20.67436643 385.80232015 C-41.65210333 385.8607518 -60.16087001 382.83632724 -76.21875 367.984375 C-93.13463885 349.88992012 -96.01661594 330.31313297 -95.83412087 306.37196887 C-95.81412998 302.87030789 -95.82929045 299.36875889 -95.83976746 295.86708069 C-95.85478644 289.0325337 -95.83810757 282.19842694 -95.81021655 275.36393476 C-95.77886623 267.39175816 -95.77928025 259.41967345 -95.78073429 251.44744682 C-95.78223151 237.22048755 -95.75487228 222.99373164 -95.71118164 208.7668457 C-95.66887282 194.98262837 -95.64767211 181.19858979 -95.6496582 167.41430664 C-95.64977807 166.56417225 -95.64989794 165.71403785 -95.65002144 164.83814181 C-95.6501425 163.98942827 -95.65026357 163.14071474 -95.6503883 162.26628262 C-95.65246025 146.53390726 -95.6347812 130.80160731 -95.60792865 115.06925644 C-95.59890262 109.51983246 -95.59569278 103.9704224 -95.59433174 98.4209919 C-95.59228059 91.65835568 -95.57881965 84.89584678 -95.55133332 78.13326455 C-95.53753278 74.68688482 -95.52832301 71.24066732 -95.53211594 67.79425812 C-95.53359259 64.05218072 -95.51657762 60.31062353 -95.49488831 56.56861877 C-95.49953411 55.48875012 -95.50417992 54.40888146 -95.50896651 53.2962895 C-95.35347264 37.01855723 -87.85430429 22.80972077 -76.77734375 11.09765625 C-55.61368668 -8.91100188 -25.80280335 -13.41649547 0 0 Z " fill="#FDFDFD" transform="translate(431.09375,306.453125)"/>
<path d="M0 0 C1.40555517 0.71639146 2.81124331 1.43252209 4.21704102 2.1484375 C4.96905792 2.53386719 5.72107483 2.91929687 6.49588013 3.31640625 C10.91015556 5.56984795 15.34532987 7.78171102 19.77734375 10 C21.68949975 10.9582403 23.60160867 11.91657456 25.51367188 12.875 C26.47200928 13.35517578 27.43034668 13.83535156 28.41772461 14.33007812 C30.38129302 15.31440178 32.34450481 16.2994371 34.30737305 17.28515625 C37.19224267 18.73368233 40.07841641 20.17958093 42.96484375 21.625 C43.8306456 22.06048157 44.69644745 22.49596313 45.58848572 22.94464111 C50.34898924 25.32510985 55.14049554 27.58703763 60.01844788 29.71711731 C66.41342327 32.52794157 72.56312119 35.83958882 78.60546875 39.3359375 C81.01964353 40.64745471 81.01964353 40.64745471 84.10488892 41.90248108 C87.8180466 43.48330387 91.42852445 45.2468815 95.02880859 47.06811523 C95.71233587 47.41185149 96.39586315 47.75558775 97.10010338 48.10974026 C99.3702388 49.25266205 101.63849585 50.39923604 103.90625 51.546875 C105.09215099 52.14687254 105.09215099 52.14687254 106.30200958 52.75899124 C110.63145084 54.95043723 114.95945776 57.14470095 119.28701782 59.33985901 C126.22344573 62.85686338 133.16778169 66.35815934 140.11310768 69.85755253 C145.3731407 72.50858718 150.62995417 75.16565786 155.88037109 77.83569336 C161.0011452 80.43947866 166.12953807 83.02763458 171.26362228 85.60507011 C173.20970383 86.5854898 175.15296473 87.57152953 177.09328079 88.56331062 C179.79404477 89.94266159 182.50410762 91.30176328 185.21728516 92.65649414 C186.01214325 93.06830429 186.80700134 93.48011444 187.62594604 93.90440369 C188.36834534 94.27010468 189.11074463 94.63580566 189.87564087 95.0125885 C190.51301996 95.33496522 191.15039906 95.65734194 191.80709267 95.98948765 C197.64761795 97.54031706 202.89426235 94.32544423 207.9475708 91.73980713 C208.74037343 91.3422924 209.53317605 90.94477767 210.350003 90.53521705 C213.00185714 89.20322517 215.64779869 87.85989179 218.29394531 86.51660156 C220.19626524 85.55832745 222.09896463 84.6008063 224.00201416 83.64398193 C228.09985548 81.58196109 232.19523344 79.51515301 236.28885651 77.44477081 C242.77494557 74.1650904 249.26801003 70.8993945 255.76239014 67.63616943 C274.22948448 58.3543662 292.68720665 49.05402404 311.13769531 39.73925781 C321.32789336 34.5948708 331.52392933 29.46224162 341.72621989 24.34187675 C348.16905174 21.10745287 354.60443266 17.85880598 361.03450632 14.59909868 C365.05963804 12.56287523 369.09154961 10.54037076 373.1253891 8.52146149 C374.97835895 7.59072365 376.82861611 6.65455962 378.67572021 5.7122345 C399.9568539 -5.1359961 419.09206223 -11.33737531 442.90625 -4.453125 C446.06213799 -3.35393801 448.96546281 -2.036213 451.90625 -0.453125 C452.71578125 -0.02128906 453.5253125 0.41054688 454.359375 0.85546875 C471.22621086 10.40127003 480.30333823 24.45747414 485.90625 42.546875 C486.69078227 45.92441344 487.03312095 49.04143435 487.04047108 52.50590229 C487.04492892 53.48482451 487.04938676 54.46374673 487.05397969 55.47233325 C487.05370315 57.07415077 487.05370315 57.07415077 487.05342102 58.70832825 C487.05709771 59.84878953 487.0607744 60.98925082 487.0645625 62.16427153 C487.07559581 65.99469142 487.07944265 69.82508418 487.08325195 73.65551758 C487.08898606 76.39873486 487.09615127 79.14194809 487.10316467 81.88516235 C487.12290803 90.12497518 487.13299413 98.3647892 487.14189246 106.60461977 C487.14628022 110.49021025 487.15164589 114.37579937 487.15688133 118.26138878 C487.17389405 131.18828581 487.18838536 144.115182 487.19563007 157.04208851 C487.19753981 160.39516514 487.19946016 163.74824176 487.20141602 167.10131836 C487.20189976 167.93465664 487.2023835 168.76799491 487.2028819 169.62658586 C487.21117146 183.10790902 487.23648999 196.58914313 487.26899669 210.07042746 C487.30213931 223.92913686 487.32008546 237.78780114 487.32327431 251.64655036 C487.32543312 259.42041176 487.33408873 267.19414346 487.35973549 274.96796608 C487.38154142 281.59273061 487.3894448 288.21733393 487.37976871 294.84213028 C487.37525184 298.21641662 487.37917861 301.59010385 487.39653015 304.96438789 C487.51604725 329.59681951 484.94127433 349.97511346 467.0390625 368.4765625 C454.86118112 379.84595383 439.43152811 385.72197055 422.89255333 385.67550945 C422.09906654 385.67726249 421.30557974 385.67901553 420.4880479 385.68082169 C417.82480867 385.68547968 415.16162408 385.68301669 412.49838257 385.68058777 C410.57134953 385.68245585 408.64431686 385.68475654 406.7172848 385.68745309 C401.4180674 385.69357801 396.11886577 385.69343668 390.81964564 385.69225872 C385.10576429 385.69205488 379.39188802 385.69757187 373.67800903 385.70231628 C362.4812806 385.71062752 351.28455743 385.71337135 340.08782618 385.71392866 C330.98623989 385.71440366 321.88465535 385.7164576 312.78306961 385.71962929 C291.1808261 385.727004 269.57858422 385.73315396 247.97633934 385.73263073 C247.28545946 385.73261515 246.59457957 385.73259957 245.88276393 385.73258352 C242.38113938 385.73250041 238.87951483 385.73240137 235.37789027 385.73229881 C234.68246292 385.73227887 233.98703556 385.73225892 233.27053465 385.73223837 C231.86420997 385.73219794 230.4578853 385.73215614 229.05156063 385.73211298 C207.17873559 385.73150043 185.30592607 385.73900295 163.43310547 385.75268555 C138.85497265 385.76805414 114.276851 385.77663861 89.69871294 385.77572232 C76.68690513 385.77539031 63.67511481 385.77813919 50.663311 385.78890038 C39.58344126 385.79800497 28.50359692 385.80018099 17.42372505 385.79339095 C11.77168524 385.79012538 6.11969418 385.79007044 0.467659 385.7987442 C-4.7102427 385.80660852 -9.88805696 385.80517839 -15.06595652 385.79646007 C-16.93542688 385.79492493 -18.80490376 385.79674178 -20.67436643 385.80232015 C-41.65210333 385.8607518 -60.16087001 382.83632724 -76.21875 367.984375 C-93.13463885 349.88992012 -96.01661594 330.31313297 -95.83412087 306.37196887 C-95.81412998 302.87030789 -95.82929045 299.36875889 -95.83976746 295.86708069 C-95.85478644 289.0325337 -95.83810757 282.19842694 -95.81021655 275.36393476 C-95.77886623 267.39175816 -95.77928025 259.41967345 -95.78073429 251.44744682 C-95.78223151 237.22048755 -95.75487228 222.99373164 -95.71118164 208.7668457 C-95.66887282 194.98262837 -95.64767211 181.19858979 -95.6496582 167.41430664 C-95.64977807 166.56417225 -95.64989794 165.71403785 -95.65002144 164.83814181 C-95.6501425 163.98942827 -95.65026357 163.14071474 -95.6503883 162.26628262 C-95.65246025 146.53390726 -95.6347812 130.80160731 -95.60792865 115.06925644 C-95.59890262 109.51983246 -95.59569278 103.9704224 -95.59433174 98.4209919 C-95.59228059 91.65835568 -95.57881965 84.89584678 -95.55133332 78.13326455 C-95.53753278 74.68688482 -95.52832301 71.24066732 -95.53211594 67.79425812 C-95.53359259 64.05218072 -95.51657762 60.31062353 -95.49488831 56.56861877 C-95.49953411 55.48875012 -95.50417992 54.40888146 -95.50896651 53.2962895 C-95.35347264 37.01855723 -87.85430429 22.80972077 -76.77734375 11.09765625 C-55.61368668 -8.91100188 -25.80280335 -13.41649547 0 0 Z M-4.09375 64.546875 C-4.1030957 65.11494873 -4.11244141 65.68302246 -4.12207031 66.26831055 C-4.45048252 82.19469271 -5.76646551 95.09594895 -15.09375 108.546875 C-15.815625 109.59875 -16.5375 110.650625 -17.28125 111.734375 C-28.02507227 122.47819727 -40.320868 125.43646329 -55.09375 127.546875 C-55.09375 184.966875 -55.09375 242.386875 -55.09375 301.546875 C-50.80375 302.206875 -46.51375 302.866875 -42.09375 303.546875 C-27.77922581 307.47895109 -17.39930329 316.01121813 -9.84375 328.671875 C-7.09375 334.546875 -7.09375 334.546875 -4.09375 348.546875 C127.90625 348.546875 259.90625 348.546875 395.90625 348.546875 C397.39125 341.616875 397.39125 341.616875 398.90625 334.546875 C404.66553898 320.98509031 413.62998155 311.88251197 426.90625 305.546875 C433.61244217 303.07950241 439.72409431 302.3448923 446.90625 301.546875 C446.90625 244.126875 446.90625 186.706875 446.90625 127.546875 C440.96625 127.051875 440.96625 127.051875 434.90625 126.546875 C420.30893901 122.88576256 409.75595139 114.19452278 401.90625 101.546875 C397.36811656 92.70945725 396.77302703 83.88422418 396.34375 74.109375 C396.30056641 73.18705078 396.25738281 72.26472656 396.21289062 71.31445312 C396.10770069 69.05871337 396.00555893 66.80288001 395.90625 64.546875 C392.25458439 65.95367638 388.76773033 67.55538309 385.26974487 69.30836487 C384.14600464 69.87027023 383.0222644 70.4321756 381.86447144 71.0111084 C380.62821786 71.63180208 379.39198188 72.25253079 378.15576172 72.87329102 C376.8460568 73.52910373 375.5362603 74.18473357 374.22637939 74.8401947 C371.40757597 76.25117548 368.5893988 77.66339674 365.77169418 79.07657051 C361.29772407 81.32034268 356.82221166 83.5610263 352.34646606 85.80125427 C342.01941808 90.97079537 331.69435134 96.14428876 321.36935425 101.3179245 C311.94009812 106.04269084 302.51040229 110.76657403 293.07906163 115.48717827 C289.36839377 117.34457406 285.6581513 119.20280866 281.94894028 121.06311226 C253.75988478 135.20054336 253.75988478 135.20054336 239.7204895 141.75108337 C235.8126076 143.5773549 231.9503899 145.49019472 228.09375 147.421875 C227.42409273 147.75590301 226.75443546 148.08993101 226.06448555 148.43408108 C222.10238396 150.41192752 218.17957639 152.45582934 214.265625 154.52734375 C213.2856958 155.0373291 212.3057666 155.54731445 211.29614258 156.07275391 C209.3663283 157.07715737 207.44385434 158.09582619 205.5300293 159.13037109 C204.64226807 159.58879395 203.75450684 160.0472168 202.83984375 160.51953125 C202.05665771 160.93468994 201.27347168 161.34984863 200.46655273 161.77758789 C194.04230605 163.70786359 188.31900551 160.6088359 182.70620728 157.74412537 C181.90872271 157.34716636 181.11123814 156.95020736 180.28958738 156.54121929 C177.6278299 155.21327941 174.97346479 153.87120244 172.31884766 152.52905273 C170.40856495 151.57238718 168.49783765 150.61660896 166.58670044 149.66165161 C161.40504936 147.06940862 156.22962825 144.46494351 151.05518007 141.8583591 C145.64346433 139.1350081 140.22591969 136.42330429 134.80892944 133.71046448 C124.55348661 128.57239359 114.30301595 123.42448645 104.05443513 118.27274424 C88.98999777 110.70068913 73.91850821 103.14269322 58.84656334 95.58559513 C56.62747528 94.47292229 54.40838767 93.36024854 52.18930054 92.24757385 C51.10648438 91.70466692 50.02366822 91.16175998 48.90803945 90.60240132 C42.45149791 87.36476369 35.99653374 84.12400719 29.54291844 80.88054073 C25.5402132 78.86912585 21.53676472 76.85919338 17.53318405 74.84952164 C15.66912237 73.91334056 13.80541482 72.97645398 11.94207764 72.03883171 C9.41040962 70.76497822 6.87755364 69.49351876 4.34439087 68.22264099 C3.59723458 67.84590113 2.85007829 67.46916126 2.0802809 67.08100504 C-0.87275311 65.32438834 -0.87275311 65.32438834 -4.09375 64.546875 Z " fill="#1A2541" transform="translate(431.09375,306.453125)"/>
<path d="M0 0 C1.64633423 0.0146228 1.64633423 0.0146228 3.32592773 0.02954102 C22.65092873 0.44992855 39.38062691 7.89336793 53.0625 21.546875 C62.74720353 31.96356193 69.08068174 42.75709377 72.75 56.4375 C73.09933594 57.49582031 73.44867187 58.55414062 73.80859375 59.64453125 C78.54259123 78.71802316 72.53922992 98.04204131 62.75 114.4375 C60.58415493 117.60969733 58.2619355 120.53681258 55.75 123.4375 C55.12996094 124.2521875 54.50992188 125.066875 53.87109375 125.90625 C47.78804925 133.16557382 39.50457538 137.8594461 31.0625 141.875 C30.37454346 142.2047583 29.68658691 142.5345166 28.9777832 142.87426758 C20.22782333 146.85833616 11.99243948 147.78072663 2.4375 147.6875 C1.41930176 147.67928223 0.40110352 147.67106445 -0.64794922 147.66259766 C-20.16811623 147.37209109 -38.27579881 140.60760121 -52.25 126.4375 C-66.06139172 111.55937478 -74.13223838 91.88796978 -73.70581055 71.51367188 C-72.65793511 49.87287706 -62.52087954 32.03555523 -47.015625 17.31640625 C-42.16716152 13.14314825 -36.98298082 10.02281446 -31.3125 7.125 C-30.68077881 6.79935059 -30.04905762 6.47370117 -29.39819336 6.13818359 C-19.86517935 1.4895248 -10.55198637 -0.10529947 0 0 Z " fill="#1A2542" transform="translate(626.25,484.5625)"/>
<path d="M0 0 C6.93 0 13.86 0 21 0 C27.68485557 7.65973034 27.68485557 7.65973034 29.4765625 11.31640625 C32.01146119 16.17277041 35.09728757 20.43546057 38.375 24.8125 C42.86576467 30.96537905 47.22251527 37.19728878 51.5 43.5 C56.89039152 51.4418435 62.45645763 59.24056085 68.10546875 67 C71.05991938 71.06320813 73.91909856 75.18398142 76.73046875 79.34765625 C77.91643213 81.14021093 77.91643213 81.14021093 80 82 C80.22558594 81.319375 80.45117188 80.63875 80.68359375 79.9375 C82.35157689 76.21547235 84.60584507 73.23693035 87.0625 70 C88.06906645 68.6507517 89.07425601 67.30047521 90.078125 65.94921875 C90.57634766 65.27938965 91.07457031 64.60956055 91.58789062 63.91943359 C94.72588814 59.6540573 97.68882063 55.2656689 100.68798828 50.90234375 C108.49959992 39.57594296 116.3237929 28.23217928 124.54394531 17.19702148 C126.89525694 14.02890455 129.10162678 10.97666107 130.8515625 7.43359375 C132.5 4.375 132.5 4.375 137 0 C143.93 0 150.86 0 158 0 C158 56.76 158 113.52 158 172 C148.76 172 139.52 172 130 172 C130 134.71 130 97.42 130 59 C129.34 59 128.68 59 128 59 C127.66935547 60.01707031 127.66935547 60.01707031 127.33203125 61.0546875 C125.61172987 64.85852105 123.2453317 67.84603189 120.6875 71.125 C116.07532422 77.14744668 111.68555104 83.27815631 107.4375 89.5625 C103.07208775 96.01072633 98.61970256 102.36880378 93.97045898 108.61572266 C91.65968825 111.72256263 89.39574365 114.85009035 87.19921875 118.0390625 C86.74571045 118.69285889 86.29220215 119.34665527 85.82495117 120.02026367 C84.96133719 121.26993395 84.1056037 122.52509851 83.2590332 123.78637695 C82.24640532 125.24495996 81.13070543 126.63091824 80 128 C79.01 128 78.02 128 77 128 C75.67236328 126.64916992 75.67236328 126.64916992 74.3203125 124.73046875 C73.81016602 124.01584473 73.30001953 123.3012207 72.77441406 122.56494141 C72.23010742 121.78038574 71.68580078 120.99583008 71.125 120.1875 C70.55491211 119.38231934 69.98482422 118.57713867 69.39746094 117.74755859 C64.72071571 111.11468707 60.15649798 104.40365335 55.59619141 97.69042969 C51.99993319 92.41097882 48.27893038 87.27504778 44.41015625 82.19140625 C41.20803949 77.9513262 38.06603373 73.66955446 34.9375 69.375 C34.35226563 68.57956787 33.76703125 67.78413574 33.1640625 66.96459961 C32.62394531 66.22089111 32.08382812 65.47718262 31.52734375 64.7109375 C31.03999756 64.04368652 30.55265137 63.37643555 30.05053711 62.68896484 C29 61 29 61 29 59 C28.34 59 27.68 59 27 59 C27 95.96 27 132.92 27 171 C18.09 171 9.18 171 0 171 C0 114.57 0 58.14 0 0 Z " fill="#1A2441" transform="translate(194,729)"/>
<path d="M0 0 C0.99 0.66 1.98 1.32 3 2 C3 -1.96 3 -5.92 3 -10 C12.24 -10 21.48 -10 31 -10 C31 29.27 31 68.54 31 109 C21.76 109 12.52 109 3 109 C2.67 105.04 2.34 101.08 2 97 C0.80375 98.03125 -0.3925 99.0625 -1.625 100.125 C-15.61539468 111.03351693 -31.14266198 111.89960247 -48.12890625 110.796875 C-62.17272661 108.87134374 -75.14591229 99.9379256 -84.1875 89.375 C-96.50221451 73.13856099 -98.62958123 55.87136526 -97 36 C-94.7072453 21.32818238 -85.30857792 8.25530105 -74 -1 C-50.49918502 -17.31637842 -23.16142503 -16.76867502 0 0 Z " fill="#1B2643" transform="translate(753,792)"/>
<path d="M0 0 C1.84765625 1.3671875 1.84765625 1.3671875 3.84765625 3.3671875 C4.17765625 -0.5928125 4.50765625 -4.5528125 4.84765625 -8.6328125 C13.75765625 -8.6328125 22.66765625 -8.6328125 31.84765625 -8.6328125 C31.84765625 30.6371875 31.84765625 69.9071875 31.84765625 110.3671875 C22.93765625 110.3671875 14.02765625 110.3671875 4.84765625 110.3671875 C4.84765625 106.0771875 4.84765625 101.7871875 4.84765625 97.3671875 C4.18765625 97.3671875 3.52765625 97.3671875 2.84765625 97.3671875 C2.84765625 98.0271875 2.84765625 98.6871875 2.84765625 99.3671875 C-3.09263582 104.49858874 -9.73237459 107.93987976 -17.15234375 110.3671875 C-18.18746094 110.72425781 -19.22257812 111.08132813 -20.2890625 111.44921875 C-32.79175874 114.42003131 -47.4021546 113.59675708 -59.15234375 108.3671875 C-60.08949219 107.9546875 -61.02664063 107.5421875 -61.9921875 107.1171875 C-78.11988568 99.15512613 -88.27476904 85.23595414 -94.125 68.6015625 C-98.77062555 52.78482807 -96.92552121 35.12743982 -89.40234375 20.4921875 C-80.4128354 5.55439751 -67.74736224 -5.00151504 -51.08984375 -10.4453125 C-33.03915585 -14.91963316 -15.10370894 -10.28224277 0 0 Z " fill="#1A2541" transform="translate(473.15234375,790.6328125)"/>
<path d="M0 0 C8.91 0 17.82 0 27 0 C27.33 34.32 27.66 68.64 28 104 C36.3505135 95.703664 36.3505135 95.703664 44.125 87.09375 C46.483453 84.46014415 48.98445956 81.98174077 51.5 79.5 C54.57404135 76.46715183 57.57999199 73.42060646 60.375 70.125 C60.94476562 69.50882813 61.51453125 68.89265625 62.1015625 68.2578125 C64.16823174 65.91150766 64.16823174 65.91150766 66.0859375 62.6171875 C69.43192837 57.80574226 72.84943712 53.75708637 78.89825439 52.65374756 C89.8456333 51.44479011 101.04274071 52.24816207 112 53 C110.51891127 56.4534417 108.57178301 58.64921326 105.89453125 61.265625 C104.66573242 62.47798828 104.66573242 62.47798828 103.41210938 63.71484375 C102.55423828 64.55144531 101.69636719 65.38804687 100.8125 66.25 C93.98854331 72.89338253 93.98854331 72.89338253 87.5703125 79.921875 C83.02339493 85.22738783 78.02232367 90.08482906 73.0625 95 C72.0824469 95.97502386 71.1026276 96.9502828 70.12304688 97.92578125 C67.75097687 100.28616618 65.3765914 102.64416905 63 105 C67.40957648 114.17225652 75.53877056 121.80842281 82.19824219 129.44824219 C86.12016612 133.95627968 89.92769508 138.5430351 93.6875 143.1875 C96.42988832 146.52283714 99.24223898 149.79303268 102.0625 153.0625 C116 169.26216516 116 169.26216516 116 172 C84.00970796 174.42512211 84.00970796 174.42512211 77.38671875 169.26953125 C74.72978636 166.43834079 72.78810566 163.25175729 70.99462891 159.8203125 C69.53604227 157.15089131 67.6147093 154.97760947 65.625 152.6875 C64.0827355 150.79215297 62.54115529 148.89624906 61 147 C58.58809395 144.03774983 56.17026981 141.08041906 53.75 138.125 C53.15912598 137.39885498 52.56825195 136.67270996 51.95947266 135.92456055 C48.80457073 132.07625887 45.59288844 128.44431035 42 125 C41.79503906 125.57105469 41.59007812 126.14210938 41.37890625 126.73046875 C40 129 40 129 37.21484375 130.92578125 C31.89568976 134.63013439 28.54630106 138.01541981 27.34228516 144.59326172 C26.40555787 153.68626416 26.70873094 162.88103779 27 172 C18.09 172 9.18 172 0 172 C0 115.24 0 58.48 0 0 Z " fill="#192440" transform="translate(538,729)"/>
<path d="M0 0 C1.00716064 0.00684814 2.01432129 0.01369629 3.05200195 0.02075195 C18.40333669 0.34722 33.24071015 4.65027887 45.9375 13.4375 C44.79383882 16.72992545 43.64720297 20.02130714 42.5 23.3125 C42.01176758 24.71822266 42.01176758 24.71822266 41.51367188 26.15234375 C41.20107422 27.04824219 40.88847656 27.94414063 40.56640625 28.8671875 C40.27838135 29.69460449 39.99035645 30.52202148 39.69360352 31.37451172 C38.9375 33.4375 38.9375 33.4375 37.9375 35.4375 C34.25342817 34.848572 31.41068392 33.81415702 28.125 32.0625 C17.30096306 26.49769052 4.46714263 22.56438386 -7.6796875 26.2265625 C-11.08758209 27.86185258 -12.95329699 29.27369548 -15.0625 32.4375 C-15.64619443 35.85288144 -15.64619443 35.85288144 -15.0625 39.4375 C-11.30153483 44.1641184 -7.57233527 45.70737125 -2 47.375 C-1.22068115 47.62314453 -0.4413623 47.87128906 0.36157227 48.12695312 C4.61457799 49.468185 8.8916366 50.7175018 13.1796875 51.94140625 C28.12506876 56.22189988 39.70877886 60.40688071 48.59375 73.96484375 C52.4965498 81.14644919 52.04819363 91.57583531 50.25390625 99.4296875 C45.94546184 110.90695435 38.38442938 117.42173114 27.5625 122.6875 C9.09793676 130.30175288 -15.34047422 127.59099467 -33.40234375 120.0859375 C-46.24674838 114.44334747 -46.24674838 114.44334747 -47.78710938 110.65576172 C-48.15016801 107.73133732 -47.38556234 106.13588662 -46.19140625 103.453125 C-45.78212891 102.51855469 -45.37285156 101.58398438 -44.95117188 100.62109375 C-44.51353516 99.65300781 -44.07589844 98.68492187 -43.625 97.6875 C-43.19123047 96.70394531 -42.75746094 95.72039062 -42.31054688 94.70703125 C-41.23802334 92.27912082 -40.15507629 89.85643666 -39.0625 87.4375 C-34.96886405 89.00606527 -31.52893203 90.97872159 -27.8125 93.3125 C-16.70152321 99.90605618 -2.95875792 103.16041276 9.9375 101.4375 C15.0756467 100.04421948 18.92678175 98.95357737 21.9375 94.4375 C22.32780357 92.29290824 22.32780357 92.29290824 22.3125 90 C22.34085938 89.23816406 22.36921875 88.47632813 22.3984375 87.69140625 C21.7527167 84.53394097 20.42449851 83.44138224 17.9375 81.4375 C10.40761278 77.54108217 2.03063113 75.62402707 -6.125 73.5 C-19.96472357 69.84699326 -33.17159334 64.89932634 -41.125 52.125 C-44.79993089 43.86600899 -44.61485692 32.83128253 -42.140625 24.234375 C-40.96886665 21.75389953 -39.68347069 19.64634273 -38.0625 17.4375 C-37.65128906 16.80972656 -37.24007812 16.18195312 -36.81640625 15.53515625 C-28.39516408 4.11525218 -13.49358287 -0.14172741 0 0 Z " fill="#1A2542" transform="translate(856.0625,777.5625)"/>
<path d="M0 0 C2.35125 0.020625 4.7025 0.04125 7.125 0.0625 C7.125 8.9725 7.125 17.8825 7.125 27.0625 C4.52625 27.165625 1.9275 27.26875 -0.75 27.375 C-12.21087813 28.00440799 -21.07805691 30.2075439 -29.875 38.0625 C-38.28484734 47.92415256 -39.33260735 57.81552242 -39.38671875 70.28125 C-39.40358811 71.74956746 -39.42174135 73.21787069 -39.44111633 74.68615723 C-39.48837805 78.52636259 -39.51834065 82.36651018 -39.54455566 86.20690918 C-39.57448237 90.13545129 -39.62097069 94.0637948 -39.66601562 97.9921875 C-39.7517773 105.68220953 -39.81770894 113.3722035 -39.875 121.0625 C-49.115 121.0625 -58.355 121.0625 -67.875 121.0625 C-67.875 81.7925 -67.875 42.5225 -67.875 2.0625 C-58.965 2.0625 -50.055 2.0625 -40.875 2.0625 C-40.38 10.4775 -40.38 10.4775 -39.875 19.0625 C-38.92625 17.886875 -37.9775 16.71125 -37 15.5 C-26.93504419 4.05517122 -14.97899154 -0.18719598 0 0 Z " fill="#1C2743" transform="translate(1061.875,779.9375)"/>
<path d="M0 0 C7.18613086 5.0324561 12.11959062 11.81578297 14.28125 20.37890625 C14.77725044 23.82476782 14.9397024 27.21214901 14.96875 30.69140625 C14.97600098 31.51479492 14.98325195 32.33818359 14.99072266 33.18652344 C14.69248776 43.15037129 10.0688024 51.25600047 3.28125 58.37890625 C-5.76928459 66.10045899 -16.04917013 68.33514469 -27.7421875 67.8515625 C-36.70447441 67.07924829 -44.08170659 62.01367297 -50.03515625 55.515625 C-57.68656604 45.80490307 -59.85657206 35.57808703 -58.71875 23.37890625 C-56.45009846 13.06808878 -50.55648977 4.62258197 -41.859375 -1.3359375 C-27.82084825 -9.7641771 -13.74573648 -8.19609287 0 0 Z " fill="#FAFBFB" transform="translate(741.71875,810.62109375)"/>
<path d="M0 0 C9.37637016 4.96669112 15.57919314 11.66313284 19.2734375 21.60546875 C22.32132032 31.65037289 22.15486903 41.58345766 17.6796875 51.140625 C11.98524213 60.83442502 3.9084105 68.04135092 -7 71 C-16.21889867 72.01035124 -26.07062026 72.30823342 -34 67 C-35.03833984 66.34644531 -35.03833984 66.34644531 -36.09765625 65.6796875 C-44.01326839 60.26452106 -49.88610303 52.4294056 -52 43 C-53.2385013 31.87475013 -52.87961858 21.63866642 -46.08203125 12.390625 C-34.34407138 -1.65337655 -17.38660187 -7.80923643 0 0 Z " fill="#FBFBFC" transform="translate(457,807)"/>
<path d="M0 0 C9.24 0 18.48 0 28 0 C28 39.27 28 78.54 28 119 C18.76 119 9.52 119 0 119 C0 79.73 0 40.46 0 0 Z " fill="#1D2843" transform="translate(934,782)"/>
<path d="M0 0 C5.9666097 3.37243157 11.14922289 8.54215079 13.6875 15 C14.79076959 23.57066268 13.9494527 30.98828953 8.6875 38 C2.83784164 43.77758865 -3.4522921 46.26801025 -11.6875 46.4375 C-19.01558457 46.30411052 -22.87934232 44.30259016 -28.05859375 39.3203125 C-34.06967122 32.83353825 -34.88584757 26.15417814 -34.7578125 17.484375 C-33.90264879 10.79309403 -30.13800149 6.45535329 -25.25 2.0625 C-17.60599964 -3.30456408 -8.52192069 -3.87004655 0 0 Z " fill="#1B2642" transform="translate(809.3125,505)"/>
<path d="M0 0 C6.70797051 3.09442039 11.15519448 7.25202075 14.51171875 13.8125 C16.10899837 22.27808201 15.95929305 29.41043736 11.6171875 37 C7.78455821 42.50118821 2.66341215 45.6928445 -3.86328125 47.125 C-10.96483506 48.00663901 -16.77552238 47.65656283 -22.890625 43.75 C-28.3183474 39.2788465 -32.28806036 33.40585438 -33.234375 26.36328125 C-33.40384948 18.89643487 -32.37809546 13.20971364 -27.86328125 7.125 C-25.3852228 4.75980361 -22.81244447 2.86049168 -19.86328125 1.125 C-19.24839844 0.75246094 -18.63351562 0.37992187 -18 -0.00390625 C-12.48867342 -2.2507542 -5.59432308 -1.7095885 0 0 Z " fill="#1B2542" transform="translate(463.86328125,503.875)"/>
<path d="M0 0 C1.07314453 -0.02900391 2.14628906 -0.05800781 3.25195312 -0.08789062 C10.15260462 -0.14282539 14.58127223 0.59135527 20.4375 4.3125 C25.12092368 9.35618704 25.83231144 12.73087399 25.796875 19.47265625 C25.23204451 23.93604501 23.44143183 26.02247942 20.4375 29.3125 C19.4475 29.8075 19.4475 29.8075 18.4375 30.3125 C19.29393266 35.31840923 22.32669965 39.27902418 24.94140625 43.53515625 C26.4375 46.3125 26.4375 46.3125 26.4375 49.3125 C22.31441371 49.85290451 18.53945411 50.08783743 14.4375 49.3125 C11.57190411 46.72849445 10.08752971 43.76308845 8.4375 40.3125 C7.81875 39.343125 7.2 38.37375 6.5625 37.375 C5.4375 35.3125 5.4375 35.3125 5.4375 33.3125 C3.4575 33.3125 1.4775 33.3125 -0.5625 33.3125 C-0.55089844 34.38371094 -0.53929687 35.45492187 -0.52734375 36.55859375 C-0.51796701 37.95572743 -0.50886669 39.35286299 -0.5 40.75 C-0.49162109 41.45705078 -0.48324219 42.16410156 -0.47460938 42.89257812 C-0.46596412 44.69943559 -0.51029989 46.50637603 -0.5625 48.3125 C-1.5625 49.3125 -1.5625 49.3125 -3.8125 49.4453125 C-4.72 49.44273437 -5.6275 49.44015625 -6.5625 49.4375 C-7.92375 49.44136719 -7.92375 49.44136719 -9.3125 49.4453125 C-11.5625 49.3125 -11.5625 49.3125 -12.5625 48.3125 C-12.66072744 46.84444708 -12.6904837 45.3717254 -12.69189453 43.90039062 C-12.69662277 42.49388245 -12.69662277 42.49388245 -12.70144653 41.05895996 C-12.6994223 40.03919067 -12.69739807 39.01942139 -12.6953125 37.96875 C-12.69626923 36.92932251 -12.69722595 35.88989502 -12.69821167 34.81896973 C-12.69889363 32.61645446 -12.69703827 30.41393721 -12.69287109 28.21142578 C-12.68752308 24.82710281 -12.69281559 21.44291256 -12.69921875 18.05859375 C-12.69855797 15.92447887 -12.69727681 13.79036408 -12.6953125 11.65625 C-12.69733673 10.63648071 -12.69936096 9.61671143 -12.70144653 8.56604004 C-12.69829437 7.62836792 -12.69514221 6.6906958 -12.69189453 5.72460938 C-12.69109894 4.89489624 -12.69030334 4.06518311 -12.68948364 3.21032715 C-12.34488098 -1.93991329 -3.85149121 0.03384439 0 0 Z " fill="#F5F5F6" transform="translate(599.5625,529.6875)"/>
<path d="M0 0 C1.62463842 -0.05395478 3.24978541 -0.09277195 4.875 -0.125 C5.77992188 -0.14820313 6.68484375 -0.17140625 7.6171875 -0.1953125 C10 0 10 0 12 2 C12.99 1.34 13.98 0.68 15 0 C20.66912811 -0.95248679 25.6691705 -0.79822868 30.5 2.5 C35.34965813 6.72357521 36.64646577 11.22223108 37.4375 17.4375 C36.71300174 23.33698583 34.79309903 28.20690097 30.5625 32.4375 C24.79295085 35.95551778 20.60166589 36.53297111 14 35 C13.01 34.34 12.02 33.68 11 33 C11.01160156 34.07121094 11.02320313 35.14242187 11.03515625 36.24609375 C11.04453299 37.64322743 11.05363331 39.04036299 11.0625 40.4375 C11.07087891 41.14455078 11.07925781 41.85160156 11.08789062 42.58007812 C11.09653588 44.38693559 11.05220011 46.19387603 11 48 C10 49 10 49 7.96875 49.1328125 C7.1540625 49.13023437 6.339375 49.12765625 5.5 49.125 C4.6853125 49.12757813 3.870625 49.13015625 3.03125 49.1328125 C1 49 1 49 0 48 C-0.09311889 46.49581261 -0.11746028 44.98728644 -0.11352539 43.48022461 C-0.11344986 42.51930405 -0.11337433 41.55838348 -0.11329651 40.56834412 C-0.10813522 39.523564 -0.10297394 38.47878387 -0.09765625 37.40234375 C-0.0962413 36.33834854 -0.09482635 35.27435333 -0.09336853 34.17811584 C-0.08775064 30.76454917 -0.07519511 27.351047 -0.0625 23.9375 C-0.05748731 21.62955824 -0.052924 19.32161545 -0.04882812 17.01367188 C-0.0377754 11.34242574 -0.02101987 5.67121747 0 0 Z " fill="#F5F5F7" transform="translate(633,544)"/>
<path d="M0 0 C4.67596585 2.20655785 8.12626547 4.6893982 11 9 C11.72571331 15.08071364 12.41491388 21.89470272 8.875 27.1875 C5.55288007 30.84183192 2.36195159 32.71797593 -2.6171875 33.3125 C-8.59719296 33.57179563 -12.39139582 33.15898426 -17 29 C-21.2295068 24.31324922 -22.42450174 20.61175831 -22.34375 14.4140625 C-21.56112128 8.91787444 -18.28260851 5.22153191 -14.375 1.5 C-9.48314993 -0.67415559 -5.26125394 -0.98103492 0 0 Z " fill="#1B2642" transform="translate(953,730)"/>
<path d="M0 0 C0 31.35 0 62.7 0 95 C-0.33 95 -0.66 95 -1 95 C-1 97.97 -1 100.94 -1 104 C-1.99 104.495 -1.99 104.495 -3 105 C-3 70.68 -3 36.36 -3 1 C-1 0 -1 0 0 0 Z " fill="#EDEDF0" transform="translate(568,729)"/>
<path d="M0 0 C5.39451941 0.66248484 5.39451941 0.66248484 7.5625 3.4375 C8.28867889 8.44006566 8.33619151 10.32247399 5.4375 14.5 C2.5625 16.4375 2.5625 16.4375 -0.5625 16.5 C-3.9001405 15.26652416 -4.9189082 14.64341603 -6.4375 11.4375 C-6.8254235 7.81688067 -6.83609421 5.35192201 -5.375 2 C-3.4375 0.4375 -3.4375 0.4375 0 0 Z " fill="#202B46" transform="translate(650.4375,553.5625)"/>
<path d="M0 0 C10.625 -0.25 10.625 -0.25 14 2 C14.65841766 8.0354952 14.65841766 8.0354952 12.83203125 10.7109375 C9.16836081 13.28878663 4.28286949 12.1511601 0 12 C0 8.04 0 4.08 0 0 Z " fill="#222C49" transform="translate(599,541)"/>
<path d="M0 0 C0.66 0 1.32 0 2 0 C2 37.29 2 74.58 2 113 C1.67 113 1.34 113 1 113 C0.67 77.36 0.34 41.72 0 5 C-0.99 5 -1.98 5 -3 5 C-1.625 2.5 -1.625 2.5 0 0 Z " fill="#BEC1CA" transform="translate(322,788)"/>
<path d="M0 0 C0.99 0.33 1.98 0.66 3 1 C3.07409401 4.95092059 3.12857406 8.90157294 3.16479492 12.85302734 C3.18732251 14.85919374 3.2254357 16.86516526 3.26367188 18.87109375 C3.27333984 20.12792969 3.28300781 21.38476562 3.29296875 22.6796875 C3.3086792 23.84226074 3.32438965 25.00483398 3.34057617 26.20263672 C3.22818604 27.1257666 3.1157959 28.04889648 3 29 C2.01 29.66 1.02 30.32 0 31 C0 20.77 0 10.54 0 0 Z " fill="#EBECEE" transform="translate(565,870)"/>
<path d="M0 0 C0.72123047 -0.01224609 1.44246094 -0.02449219 2.18554688 -0.03710938 C7.33145477 -0.05095487 11.7388815 0.77281019 16.6875 2.1875 C14.7075 3.1775 14.7075 3.1775 12.6875 4.1875 C12.6875 3.5275 12.6875 2.8675 12.6875 2.1875 C12.0584375 2.27128906 11.429375 2.35507812 10.78125 2.44140625 C5.1123908 3.1158639 0.32114109 3.00528661 -5.3125 2.1875 C-7.98656839 2.10479685 -10.63631227 2.13971093 -13.3125 2.1875 C-13.3125 1.8575 -13.3125 1.5275 -13.3125 1.1875 C-8.88296161 0.09540474 -4.53567626 0.00398916 0 0 Z " fill="#626A7D" transform="translate(399.3125,298.8125)"/>
<path d="M0 0 C1.17046875 0.01804687 2.3409375 0.03609375 3.546875 0.0546875 C4.88492187 0.08949219 4.88492187 0.08949219 6.25 0.125 C6.25 0.455 6.25 0.785 6.25 1.125 C5.46753906 1.17398437 4.68507813 1.22296875 3.87890625 1.2734375 C2.86699219 1.34820312 1.85507812 1.42296875 0.8125 1.5 C-0.19683594 1.56960938 -1.20617187 1.63921875 -2.24609375 1.7109375 C-3.07238281 1.84757812 -3.89867187 1.98421875 -4.75 2.125 C-5.08 2.785 -5.41 3.445 -5.75 4.125 C-6.28625 4.24875 -6.8225 4.3725 -7.375 4.5 C-9.75238128 5.12562665 -11.2892095 5.98114411 -13.375 7.25 C-14.48875 7.86875 -15.6025 8.4875 -16.75 9.125 C-17.41 8.795 -18.07 8.465 -18.75 8.125 C-17.50312408 7.16260548 -16.25235031 6.20525991 -15 5.25 C-14.30390625 4.71632813 -13.6078125 4.18265625 -12.890625 3.6328125 C-8.39416887 0.4656007 -5.5765064 -0.11153013 0 0 Z " fill="#3C475F" transform="translate(454.75,502.875)"/>
<path d="M0 0 C11.55 0 23.1 0 35 0 C34.34 1.32 33.68 2.64 33 4 C32.34 3.34 31.68 2.68 31 2 C27.79461597 1.62653332 27.79461597 1.62653332 24.0234375 1.5859375 C23.33819 1.56657135 22.6529425 1.5472052 21.94692993 1.5272522 C19.75641356 1.46743169 17.5658447 1.42106244 15.375 1.375 C13.89060198 1.33682237 12.40622616 1.29777076 10.921875 1.2578125 C7.28145315 1.16172916 3.64086564 1.07770718 0 1 C0 0.67 0 0.34 0 0 Z " fill="#2B364F" transform="translate(615,782)"/>
<path d="M0 0 C0.66 0.33 1.32 0.66 2 1 C0.59155282 4.21524305 -1.10344786 6.32183868 -3.625 8.75 C-4.57246094 9.67039062 -4.57246094 9.67039062 -5.5390625 10.609375 C-6.02117188 11.06828125 -6.50328125 11.5271875 -7 12 C-7.66 11.01 -8.32 10.02 -9 9 C-6.03 6.03 -3.06 3.06 0 0 Z " fill="#24304C" transform="translate(580,501)"/>
<path d="M0 0 C0.66 0 1.32 0 2 0 C2 7.59 2 15.18 2 23 C1.67 23 1.34 23 1 23 C0.67 17.06 0.34 11.12 0 5 C-0.99 5 -1.98 5 -3 5 C-1.625 2.5 -1.625 2.5 0 0 Z " fill="#C5C8CF" transform="translate(322,788)"/>
<path d="M0 0 C0.66 0 1.32 0 2 0 C2 4.29 2 8.58 2 13 C1.67 11.68 1.34 10.36 1 9 C0.34 9 -0.32 9 -1 9 C-1.12375 8.360625 -1.2475 7.72125 -1.375 7.0625 C-1.684375 6.0415625 -1.684375 6.0415625 -2 5 C-2.66 4.67 -3.32 4.34 -4 4 C-2.68 3.34 -1.36 2.68 0 2 C0 1.34 0 0.68 0 0 Z " fill="#DBDEE3" transform="translate(476,888)"/>
<path d="M0 0 C1.50433594 0.01353516 1.50433594 0.01353516 3.0390625 0.02734375 C3.80992187 0.03894531 4.58078125 0.05054688 5.375 0.0625 C5.375 0.3925 5.375 0.7225 5.375 1.0625 C4.281875 1.18625 3.18875 1.31 2.0625 1.4375 C-1.69881802 1.81714801 -1.69881802 1.81714801 -4.625 4.0625 C-6.94887947 4.45637788 -9.28293749 4.79736085 -11.625 5.0625 C-7.56381029 0.8659373 -5.84464408 -0.06796098 0 0 Z " fill="#3C465F" transform="translate(947.625,729.9375)"/>
<path d="M0 0 C0 0.33 0 0.66 0 1 C-3.3 1 -6.6 1 -10 1 C-10.33 1.99 -10.66 2.98 -11 4 C-13.375 4.625 -13.375 4.625 -16 5 C-16.66 4.34 -17.32 3.68 -18 3 C-12.27544841 -0.81636773 -6.70250505 -0.29282789 0 0 Z " fill="#3C465F" transform="translate(804,503)"/>
<path d="M0 0 C-2.13300328 2.36557373 -3.95949399 3.62967528 -6.9375 4.75 C-7.94103516 5.14445312 -7.94103516 5.14445312 -8.96484375 5.546875 C-11.31647491 6.07046274 -12.73617523 5.74954377 -15 5 C-13.06891037 3.96709159 -11.129882 2.94901328 -9.1875 1.9375 C-8.10855469 1.36902344 -7.02960937 0.80054688 -5.91796875 0.21484375 C-3 -1 -3 -1 0 0 Z " fill="#313C57" transform="translate(816,312)"/>
<path d="M0 0 C0 0.99 0 1.98 0 3 C-4.22949995 5.41685712 -7.12335991 6.34833144 -12 6 C-8.59780735 3.25207517 -4.51535412 0 0 0 Z " fill="#293450" transform="translate(747,345)"/>
<path d="M0 0 C-1.5 2 -1.5 2 -4 4 C-6.75871627 4.35800135 -9.20097524 4.18660165 -12 4 C-12.33 3.01 -12.66 2.02 -13 1 C-11.20994059 0.63779734 -9.41787943 0.28547531 -7.625 -0.0625 C-6.12839844 -0.35833984 -6.12839844 -0.35833984 -4.6015625 -0.66015625 C-2 -1 -2 -1 0 0 Z " fill="#DADCE1" transform="translate(465,550)"/>
<path d="M0 0 C0.66 0.99 1.32 1.98 2 3 C0.625 5.5 0.625 5.5 -1 8 C-1.66 8 -2.32 8 -3 8 C-3.103125 8.639375 -3.20625 9.27875 -3.3125 9.9375 C-3.539375 10.618125 -3.76625 11.29875 -4 12 C-4.99 12.33 -5.98 12.66 -7 13 C-5.35821735 8.22390502 -2.73453298 4.20617096 0 0 Z " fill="#2C3854" transform="translate(567,515)"/>
<path d="M0 0 C0 0.99 0 1.98 0 3 C-1.24420647 3.5345256 -2.49570936 4.05208611 -3.75 4.5625 C-4.44609375 4.85253906 -5.1421875 5.14257812 -5.859375 5.44140625 C-8.30012784 6.07831803 -9.6403655 5.80248831 -12 5 C-10.37750059 4.16180842 -8.75191503 3.3295884 -7.125 2.5 C-6.22007812 2.0359375 -5.31515625 1.571875 -4.3828125 1.09375 C-2 0 -2 0 0 0 Z " fill="#2A3651" transform="translate(735,351)"/>
<path d="M0 0 C0.66 0.66 1.32 1.32 2 2 C-0.31 4.31 -2.62 6.62 -5 9 C-5.66 8.01 -6.32 7.02 -7 6 C-4.69 4.02 -2.38 2.04 0 0 Z " fill="#2B3652" transform="translate(827,786)"/>
<path d="M0 0 C1.45567033 0.12571698 2.90917802 0.27895936 4.359375 0.45703125 C5.10445313 0.52728516 5.84953125 0.59753906 6.6171875 0.66992188 C8.45033997 0.84618654 10.28033815 1.05472576 12.109375 1.26953125 C12.109375 1.59953125 12.109375 1.92953125 12.109375 2.26953125 C10.51996094 2.32560547 10.51996094 2.32560547 8.8984375 2.3828125 C7.51038076 2.44846383 6.12236151 2.51491146 4.734375 2.58203125 C4.03570312 2.60458984 3.33703125 2.62714844 2.6171875 2.65039062 C0.33648559 2.73937421 0.33648559 2.73937421 -2.890625 3.26953125 C-3.880625 4.75453125 -3.880625 4.75453125 -4.890625 6.26953125 C-5.880625 5.93953125 -6.870625 5.60953125 -7.890625 5.26953125 C-5.54970908 1.30845509 -4.7084473 0.32618761 0 0 Z " fill="#242F4B" transform="translate(333.890625,729.73046875)"/>
<path d="M0 0 C0.99 0.33 1.98 0.66 3 1 C0.03 3.64 -2.94 6.28 -6 9 C-6.66 8.67 -7.32 8.34 -8 8 C-5.36 5.36 -2.72 2.72 0 0 Z " fill="#28324E" transform="translate(590,808)"/>
<path d="M0 0 C3.28788824 3.11016455 5.83735988 6.01618925 8 10 C7.34 10.66 6.68 11.32 6 12 C4.99157547 10.56839732 3.99352109 9.12948547 3 7.6875 C2.1646875 6.48673828 2.1646875 6.48673828 1.3125 5.26171875 C0 3 0 3 0 0 Z " fill="#26314D" transform="translate(243,771)"/>
<path d="M0 0 C3.25543229 0.34879632 4.01873107 1.02133261 6.25 3.5625 C6.8275 4.366875 7.405 5.17125 8 6 C7.34 6.66 6.68 7.32 6 8 C6 7.34 6 6.68 6 6 C5.38125 5.7525 4.7625 5.505 4.125 5.25 C1.64931313 3.79371361 1.04874998 2.62187494 0 0 Z " fill="#2C3653" transform="translate(894,315)"/>
<path d="M0 0 C-4.17737474 1.59138085 -7.53160785 2.21278058 -12 2 C-7.68866433 -1.5414543 -5.01745182 -3.04631004 0 0 Z " fill="#273351" transform="translate(701,784)"/>
<path d="M0 0 C0.66 0.33 1.32 0.66 2 1 C0.7508258 4.45925163 -0.67527795 7.14693203 -3 10 C-3.75 8.375 -3.75 8.375 -4 6 C-2.0625 2.75 -2.0625 2.75 0 0 Z " fill="#27334F" transform="translate(348,325)"/>
<path d="M0 0 C3.7910119 1.44950455 7.3874638 3.15172566 11 5 C9.3125 6.1875 9.3125 6.1875 7 7 C4.25 5.75 4.25 5.75 2 4 C2 3.34 2 2.68 2 2 C1.34 2 0.68 2 0 2 C0 1.34 0 0.68 0 0 Z " fill="#2B3651" transform="translate(878,304)"/>
<path d="M0 0 C-6 4 -6 4 -9.1875 3.625 C-10.115625 3.41875 -11.04375 3.2125 -12 3 C-10.66666667 2.33333333 -9.33333333 1.66666667 -8 1 C-7.34 0.608125 -6.68 0.21625 -6 -0.1875 C-3.57136965 -1.17413108 -2.42552909 -0.86626039 0 0 Z " fill="#414B63" transform="translate(386,302)"/>
<path d="M0 0 C0.66 0.66 1.32 1.32 2 2 C1.625 5.625 1.625 5.625 1 9 C0.01 9 -0.98 9 -2 9 C-1.125 2.25 -1.125 2.25 0 0 Z " fill="#38435D" transform="translate(558,531)"/>
<path d="M0 0 C0 0.99 0 1.98 0 3 C-3.83887763 4.48320272 -6.06204091 5.22419163 -10 4 C-8.71086513 3.32845067 -7.41859796 2.66291141 -6.125 2 C-5.40570312 1.62875 -4.68640625 1.2575 -3.9453125 0.875 C-2 0 -2 0 0 0 Z " fill="#2D3853" transform="translate(783,327)"/>
<path d="M0 0 C0.33 1.32 0.66 2.64 1 4 C-1.31 5.98 -3.62 7.96 -6 10 C-4.21739173 6.43478346 -2.24007711 3.28544643 0 0 Z " fill="#D9DBE1" transform="translate(308,808)"/>
<path d="M0 0 C0.33 0 0.66 0 1 0 C1.33 4.29 1.66 8.58 2 13 C0.02 13.99 0.02 13.99 -2 15 C-1.67 14.01 -1.34 13.02 -1 12 C-0.77674186 9.94106379 -0.59294241 7.87766347 -0.4375 5.8125 C-0.35371094 4.72582031 -0.26992188 3.63914062 -0.18359375 2.51953125 C-0.12300781 1.68808594 -0.06242188 0.85664062 0 0 Z " fill="#B2B5C0" transform="translate(964,741)"/>
<path d="M0 0 C2 3 2 3 2 5 C1.01 5.495 1.01 5.495 0 6 C-0.40729228 8.32156597 -0.74438677 10.6568787 -1 13 C-1.33 13 -1.66 13 -2 13 C-2.05447047 11.58376784 -2.09300508 10.16691809 -2.125 8.75 C-2.14820313 7.96109375 -2.17140625 7.1721875 -2.1953125 6.359375 C-1.9828378 3.79268059 -1.28654105 2.2083933 0 0 Z " fill="#5A6376" transform="translate(933,738)"/>
<path d="M0 0 C0 0.99 0 1.98 0 3 C-1.98 3.66 -3.96 4.32 -6 5 C-6.66 4.34 -7.32 3.68 -8 3 C-2.25 0 -2.25 0 0 0 Z " fill="#2C3752" transform="translate(763,337)"/>
<path d="M0 0 C0.66 0.33 1.32 0.66 2 1 C1.21625 1.7425 0.4325 2.485 -0.375 3.25 C-2.56504531 5.54433318 -3.82731386 7.12158858 -5 10 C-5.66 9.01 -6.32 8.02 -7 7 C-4.69 4.69 -2.38 2.38 0 0 Z " fill="#333E57" transform="translate(358,314)"/>
<path d="M0 0 C1.65 1.65 3.3 3.3 5 5 C3.02 5.99 3.02 5.99 1 7 C0 6 0 6 -0.0625 2.9375 C-0.041875 1.968125 -0.02125 0.99875 0 0 Z " fill="#F4F5F6" transform="translate(222,789)"/>
<path d="M0 0 C0.66 0.99 1.32 1.98 2 3 C0.35 4.65 -1.3 6.3 -3 8 C-3.66 7.67 -4.32 7.34 -5 7 C-3.35 4.69 -1.7 2.38 0 0 Z " fill="#2D3853" transform="translate(317,748)"/>
<path d="M0 0 C4.455 1.98 4.455 1.98 9 4 C8.34 4.66 7.68 5.32 7 6 C4.69 5.01 2.38 4.02 0 3 C0 2.01 0 1.02 0 0 Z " fill="#242D49" transform="translate(584,383)"/>
<path d="M0 0 C0.66 0.99 1.32 1.98 2 3 C1.125 5.6875 1.125 5.6875 0 8 C-0.99 8 -1.98 8 -3 8 C-1.125 2.25 -1.125 2.25 0 0 Z " fill="#2A3653" transform="translate(384,811)"/>
<path d="M0 0 C4.875 4.75 4.875 4.75 6 7 C5.34 7.66 4.68 8.32 4 9 C0 2.25 0 2.25 0 0 Z " fill="#242E48" transform="translate(264,801)"/>
<path d="M0 0 C4.455 1.98 4.455 1.98 9 4 C9 4.33 9 4.66 9 5 C5.625 4.75 5.625 4.75 2 4 C1.34 2.68 0.68 1.36 0 0 Z " fill="#222C4A" transform="translate(891,785)"/>
<path d="M0 0 C-2.60314689 1.73543126 -3.98694043 2.61121812 -7 3 C-7.66 2.34 -8.32 1.68 -9 1 C-5.64919071 -1.10976881 -3.77897651 -1.0497157 0 0 Z " fill="#2E3A59" transform="translate(1046,784)"/>
<path d="M0 0 C0.66 0.99 1.32 1.98 2 3 C0.68 4.32 -0.64 5.64 -2 7 C-2 3 -2 3 0 0 Z " fill="#313D58" transform="translate(310,758)"/>
<path d="M0 0 C2.97 1.98 2.97 1.98 6 4 C5.67 4.99 5.34 5.98 5 7 C3.02 5.35 1.04 3.7 -1 2 C-0.67 1.34 -0.34 0.68 0 0 Z " fill="#E7E8EC" transform="translate(958,731)"/>
</svg>
